<?xml version="1.0" encoding="utf-8" standalone="no"?>
<!DOCTYPE svg PUBLIC "-//W3C//DTD SVG 1.1//EN"
  "http://www.w3.org/Graphics/SVG/1.1/DTD/svg11.dtd">
<!-- Created with matplotlib (https://matplotlib.org/) -->
<svg height="337.074375pt" version="1.1" viewBox="0 0 878.440625 337.074375" width="878.440625pt" xmlns="http://www.w3.org/2000/svg" xmlns:xlink="http://www.w3.org/1999/xlink">
 <defs>
  <style type="text/css">
*{stroke-linecap:butt;stroke-linejoin:round;}
  </style>
 </defs>
 <g id="figure_1">
  <g id="patch_1">
   <path d="M 0 337.074375 
L 878.440625 337.074375 
L 878.440625 0 
L 0 0 
z
" style="fill:#ffffff;"/>
  </g>
  <g id="axes_1">
   <g id="patch_2">
    <path d="M 34.240625 299.518125 
L 280.417096 299.518125 
L 280.417096 22.318125 
L 34.240625 22.318125 
z
" style="fill:#ffffff;"/>
   </g>
   <g id="patch_3">
    <path clip-path="url(#pd2d2867011)" d="M 45.430465 299.518125 
L 49.928893 299.518125 
L 49.928893 299.518125 
L 45.430465 299.518125 
z
" style="fill:#1f77b4;"/>
   </g>
   <g id="patch_4">
    <path clip-path="url(#pd2d2867011)" d="M 51.0535 299.518125 
L 55.551928 299.518125 
L 55.551928 299.518125 
L 51.0535 299.518125 
z
" style="fill:#1f77b4;"/>
   </g>
   <g id="patch_5">
    <path clip-path="url(#pd2d2867011)" d="M 56.676534 299.518125 
L 61.174962 299.518125 
L 61.174962 299.518125 
L 56.676534 299.518125 
z
" style="fill:#1f77b4;"/>
   </g>
   <g id="patch_6">
    <path clip-path="url(#pd2d2867011)" d="M 62.299569 299.518125 
L 66.797997 299.518125 
L 66.797997 299.518125 
L 62.299569 299.518125 
z
" style="fill:#1f77b4;"/>
   </g>
   <g id="patch_7">
    <path clip-path="url(#pd2d2867011)" d="M 67.922604 299.518125 
L 72.421032 299.518125 
L 72.421032 246.718125 
L 67.922604 246.718125 
z
" style="fill:#1f77b4;"/>
   </g>
   <g id="patch_8">
    <path clip-path="url(#pd2d2867011)" d="M 73.545639 299.518125 
L 78.044067 299.518125 
L 78.044067 299.518125 
L 73.545639 299.518125 
z
" style="fill:#1f77b4;"/>
   </g>
   <g id="patch_9">
    <path clip-path="url(#pd2d2867011)" d="M 79.168674 299.518125 
L 83.667102 299.518125 
L 83.667102 299.518125 
L 79.168674 299.518125 
z
" style="fill:#1f77b4;"/>
   </g>
   <g id="patch_10">
    <path clip-path="url(#pd2d2867011)" d="M 84.791709 299.518125 
L 89.290137 299.518125 
L 89.290137 299.518125 
L 84.791709 299.518125 
z
" style="fill:#1f77b4;"/>
   </g>
   <g id="patch_11">
    <path clip-path="url(#pd2d2867011)" d="M 90.414744 299.518125 
L 94.913172 299.518125 
L 94.913172 299.518125 
L 90.414744 299.518125 
z
" style="fill:#1f77b4;"/>
   </g>
   <g id="patch_12">
    <path clip-path="url(#pd2d2867011)" d="M 96.037779 299.518125 
L 100.536207 299.518125 
L 100.536207 299.518125 
L 96.037779 299.518125 
z
" style="fill:#1f77b4;"/>
   </g>
   <g id="patch_13">
    <path clip-path="url(#pd2d2867011)" d="M 101.660814 299.518125 
L 106.159242 299.518125 
L 106.159242 299.518125 
L 101.660814 299.518125 
z
" style="fill:#1f77b4;"/>
   </g>
   <g id="patch_14">
    <path clip-path="url(#pd2d2867011)" d="M 107.283849 299.518125 
L 111.782277 299.518125 
L 111.782277 299.518125 
L 107.283849 299.518125 
z
" style="fill:#1f77b4;"/>
   </g>
   <g id="patch_15">
    <path clip-path="url(#pd2d2867011)" d="M 112.906884 299.518125 
L 117.405312 299.518125 
L 117.405312 299.518125 
L 112.906884 299.518125 
z
" style="fill:#1f77b4;"/>
   </g>
   <g id="patch_16">
    <path clip-path="url(#pd2d2867011)" d="M 118.529919 299.518125 
L 123.028347 299.518125 
L 123.028347 299.518125 
L 118.529919 299.518125 
z
" style="fill:#1f77b4;"/>
   </g>
   <g id="patch_17">
    <path clip-path="url(#pd2d2867011)" d="M 124.152954 299.518125 
L 128.651382 299.518125 
L 128.651382 299.518125 
L 124.152954 299.518125 
z
" style="fill:#1f77b4;"/>
   </g>
   <g id="patch_18">
    <path clip-path="url(#pd2d2867011)" d="M 129.775989 299.518125 
L 134.274417 299.518125 
L 134.274417 299.518125 
L 129.775989 299.518125 
z
" style="fill:#1f77b4;"/>
   </g>
   <g id="patch_19">
    <path clip-path="url(#pd2d2867011)" d="M 135.399024 299.518125 
L 139.897452 299.518125 
L 139.897452 299.518125 
L 135.399024 299.518125 
z
" style="fill:#1f77b4;"/>
   </g>
   <g id="patch_20">
    <path clip-path="url(#pd2d2867011)" d="M 141.022059 299.518125 
L 145.520487 299.518125 
L 145.520487 299.518125 
L 141.022059 299.518125 
z
" style="fill:#1f77b4;"/>
   </g>
   <g id="patch_21">
    <path clip-path="url(#pd2d2867011)" d="M 146.645094 299.518125 
L 151.143522 299.518125 
L 151.143522 299.518125 
L 146.645094 299.518125 
z
" style="fill:#1f77b4;"/>
   </g>
   <g id="patch_22">
    <path clip-path="url(#pd2d2867011)" d="M 152.268129 299.518125 
L 156.766557 299.518125 
L 156.766557 299.518125 
L 152.268129 299.518125 
z
" style="fill:#1f77b4;"/>
   </g>
   <g id="patch_23">
    <path clip-path="url(#pd2d2867011)" d="M 157.891164 299.518125 
L 162.389592 299.518125 
L 162.389592 35.518125 
L 157.891164 35.518125 
z
" style="fill:#1f77b4;"/>
   </g>
   <g id="patch_24">
    <path clip-path="url(#pd2d2867011)" d="M 163.514199 299.518125 
L 168.012627 299.518125 
L 168.012627 299.518125 
L 163.514199 299.518125 
z
" style="fill:#1f77b4;"/>
   </g>
   <g id="patch_25">
    <path clip-path="url(#pd2d2867011)" d="M 169.137234 299.518125 
L 173.635662 299.518125 
L 173.635662 299.518125 
L 169.137234 299.518125 
z
" style="fill:#1f77b4;"/>
   </g>
   <g id="patch_26">
    <path clip-path="url(#pd2d2867011)" d="M 174.760269 299.518125 
L 179.258697 299.518125 
L 179.258697 299.518125 
L 174.760269 299.518125 
z
" style="fill:#1f77b4;"/>
   </g>
   <g id="patch_27">
    <path clip-path="url(#pd2d2867011)" d="M 180.383304 299.518125 
L 184.881732 299.518125 
L 184.881732 246.718125 
L 180.383304 246.718125 
z
" style="fill:#1f77b4;"/>
   </g>
   <g id="patch_28">
    <path clip-path="url(#pd2d2867011)" d="M 186.006339 299.518125 
L 190.504767 299.518125 
L 190.504767 299.518125 
L 186.006339 299.518125 
z
" style="fill:#1f77b4;"/>
   </g>
   <g id="patch_29">
    <path clip-path="url(#pd2d2867011)" d="M 191.629374 299.518125 
L 196.127802 299.518125 
L 196.127802 299.518125 
L 191.629374 299.518125 
z
" style="fill:#1f77b4;"/>
   </g>
   <g id="patch_30">
    <path clip-path="url(#pd2d2867011)" d="M 197.252409 299.518125 
L 201.750836 299.518125 
L 201.750836 299.518125 
L 197.252409 299.518125 
z
" style="fill:#1f77b4;"/>
   </g>
   <g id="patch_31">
    <path clip-path="url(#pd2d2867011)" d="M 202.875443 299.518125 
L 207.373871 299.518125 
L 207.373871 299.518125 
L 202.875443 299.518125 
z
" style="fill:#1f77b4;"/>
   </g>
   <g id="patch_32">
    <path clip-path="url(#pd2d2867011)" d="M 208.498478 299.518125 
L 212.996906 299.518125 
L 212.996906 299.518125 
L 208.498478 299.518125 
z
" style="fill:#1f77b4;"/>
   </g>
   <g id="patch_33">
    <path clip-path="url(#pd2d2867011)" d="M 214.121513 299.518125 
L 218.619941 299.518125 
L 218.619941 299.518125 
L 214.121513 299.518125 
z
" style="fill:#1f77b4;"/>
   </g>
   <g id="patch_34">
    <path clip-path="url(#pd2d2867011)" d="M 219.744548 299.518125 
L 224.242976 299.518125 
L 224.242976 299.518125 
L 219.744548 299.518125 
z
" style="fill:#1f77b4;"/>
   </g>
   <g id="patch_35">
    <path clip-path="url(#pd2d2867011)" d="M 225.367583 299.518125 
L 229.866011 299.518125 
L 229.866011 246.718125 
L 225.367583 246.718125 
z
" style="fill:#1f77b4;"/>
   </g>
   <g id="patch_36">
    <path clip-path="url(#pd2d2867011)" d="M 230.990618 299.518125 
L 235.489046 299.518125 
L 235.489046 299.518125 
L 230.990618 299.518125 
z
" style="fill:#1f77b4;"/>
   </g>
   <g id="patch_37">
    <path clip-path="url(#pd2d2867011)" d="M 236.613653 299.518125 
L 241.112081 299.518125 
L 241.112081 299.518125 
L 236.613653 299.518125 
z
" style="fill:#1f77b4;"/>
   </g>
   <g id="patch_38">
    <path clip-path="url(#pd2d2867011)" d="M 242.236688 299.518125 
L 246.735116 299.518125 
L 246.735116 299.518125 
L 242.236688 299.518125 
z
" style="fill:#1f77b4;"/>
   </g>
   <g id="patch_39">
    <path clip-path="url(#pd2d2867011)" d="M 247.859723 299.518125 
L 252.358151 299.518125 
L 252.358151 246.718125 
L 247.859723 246.718125 
z
" style="fill:#1f77b4;"/>
   </g>
   <g id="patch_40">
    <path clip-path="url(#pd2d2867011)" d="M 253.482758 299.518125 
L 257.981186 299.518125 
L 257.981186 299.518125 
L 253.482758 299.518125 
z
" style="fill:#1f77b4;"/>
   </g>
   <g id="patch_41">
    <path clip-path="url(#pd2d2867011)" d="M 259.105793 299.518125 
L 263.604221 299.518125 
L 263.604221 299.518125 
L 259.105793 299.518125 
z
" style="fill:#1f77b4;"/>
   </g>
   <g id="patch_42">
    <path clip-path="url(#pd2d2867011)" d="M 264.728828 299.518125 
L 269.227256 299.518125 
L 269.227256 299.518125 
L 264.728828 299.518125 
z
" style="fill:#1f77b4;"/>
   </g>
   <g id="matplotlib.axis_1">
    <g id="xtick_1">
     <g id="line2d_1">
      <defs>
       <path d="M 0 0 
L 0 3.5 
" id="m616edc7398" style="stroke:#000000;stroke-width:0.8;"/>
      </defs>
      <g>
       <use style="stroke:#000000;stroke-width:0.8;" x="47.679679" xlink:href="#m616edc7398" y="299.518125"/>
      </g>
     </g>
     <g id="text_1">
      <!-- 840 -->
      <defs>
       <path d="M 31.78125 34.625 
Q 24.75 34.625 20.71875 30.859375 
Q 16.703125 27.09375 16.703125 20.515625 
Q 16.703125 13.921875 20.71875 10.15625 
Q 24.75 6.390625 31.78125 6.390625 
Q 38.8125 6.390625 42.859375 10.171875 
Q 46.921875 13.96875 46.921875 20.515625 
Q 46.921875 27.09375 42.890625 30.859375 
Q 38.875 34.625 31.78125 34.625 
z
M 21.921875 38.8125 
Q 15.578125 40.375 12.03125 44.71875 
Q 8.5 49.078125 8.5 55.328125 
Q 8.5 64.0625 14.71875 69.140625 
Q 20.953125 74.21875 31.78125 74.21875 
Q 42.671875 74.21875 48.875 69.140625 
Q 55.078125 64.0625 55.078125 55.328125 
Q 55.078125 49.078125 51.53125 44.71875 
Q 48 40.375 41.703125 38.8125 
Q 48.828125 37.15625 52.796875 32.3125 
Q 56.78125 27.484375 56.78125 20.515625 
Q 56.78125 9.90625 50.3125 4.234375 
Q 43.84375 -1.421875 31.78125 -1.421875 
Q 19.734375 -1.421875 13.25 4.234375 
Q 6.78125 9.90625 6.78125 20.515625 
Q 6.78125 27.484375 10.78125 32.3125 
Q 14.796875 37.15625 21.921875 38.8125 
z
M 18.3125 54.390625 
Q 18.3125 48.734375 21.84375 45.5625 
Q 25.390625 42.390625 31.78125 42.390625 
Q 38.140625 42.390625 41.71875 45.5625 
Q 45.3125 48.734375 45.3125 54.390625 
Q 45.3125 60.0625 41.71875 63.234375 
Q 38.140625 66.40625 31.78125 66.40625 
Q 25.390625 66.40625 21.84375 63.234375 
Q 18.3125 60.0625 18.3125 54.390625 
z
" id="DejaVuSans-56"/>
       <path d="M 37.796875 64.3125 
L 12.890625 25.390625 
L 37.796875 25.390625 
z
M 35.203125 72.90625 
L 47.609375 72.90625 
L 47.609375 25.390625 
L 58.015625 25.390625 
L 58.015625 17.1875 
L 47.609375 17.1875 
L 47.609375 0 
L 37.796875 0 
L 37.796875 17.1875 
L 4.890625 17.1875 
L 4.890625 26.703125 
z
" id="DejaVuSans-52"/>
       <path d="M 31.78125 66.40625 
Q 24.171875 66.40625 20.328125 58.90625 
Q 16.5 51.421875 16.5 36.375 
Q 16.5 21.390625 20.328125 13.890625 
Q 24.171875 6.390625 31.78125 6.390625 
Q 39.453125 6.390625 43.28125 13.890625 
Q 47.125 21.390625 47.125 36.375 
Q 47.125 51.421875 43.28125 58.90625 
Q 39.453125 66.40625 31.78125 66.40625 
z
M 31.78125 74.21875 
Q 44.046875 74.21875 50.515625 64.515625 
Q 56.984375 54.828125 56.984375 36.375 
Q 56.984375 17.96875 50.515625 8.265625 
Q 44.046875 -1.421875 31.78125 -1.421875 
Q 19.53125 -1.421875 13.0625 8.265625 
Q 6.59375 17.96875 6.59375 36.375 
Q 6.59375 54.828125 13.0625 64.515625 
Q 19.53125 74.21875 31.78125 74.21875 
z
" id="DejaVuSans-48"/>
      </defs>
      <g transform="translate(38.135929 314.116563)scale(0.1 -0.1)">
       <use xlink:href="#DejaVuSans-56"/>
       <use x="63.623047" xlink:href="#DejaVuSans-52"/>
       <use x="127.246094" xlink:href="#DejaVuSans-48"/>
      </g>
     </g>
    </g>
    <g id="xtick_2">
     <g id="line2d_2">
      <g>
       <use style="stroke:#000000;stroke-width:0.8;" x="103.910028" xlink:href="#m616edc7398" y="299.518125"/>
      </g>
     </g>
     <g id="text_2">
      <!-- 850 -->
      <defs>
       <path d="M 10.796875 72.90625 
L 49.515625 72.90625 
L 49.515625 64.59375 
L 19.828125 64.59375 
L 19.828125 46.734375 
Q 21.96875 47.46875 24.109375 47.828125 
Q 26.265625 48.1875 28.421875 48.1875 
Q 40.625 48.1875 47.75 41.5 
Q 54.890625 34.8125 54.890625 23.390625 
Q 54.890625 11.625 47.5625 5.09375 
Q 40.234375 -1.421875 26.90625 -1.421875 
Q 22.3125 -1.421875 17.546875 -0.640625 
Q 12.796875 0.140625 7.71875 1.703125 
L 7.71875 11.625 
Q 12.109375 9.234375 16.796875 8.0625 
Q 21.484375 6.890625 26.703125 6.890625 
Q 35.15625 6.890625 40.078125 11.328125 
Q 45.015625 15.765625 45.015625 23.390625 
Q 45.015625 31 40.078125 35.4375 
Q 35.15625 39.890625 26.703125 39.890625 
Q 22.75 39.890625 18.8125 39.015625 
Q 14.890625 38.140625 10.796875 36.28125 
z
" id="DejaVuSans-53"/>
      </defs>
      <g transform="translate(94.366278 314.116563)scale(0.1 -0.1)">
       <use xlink:href="#DejaVuSans-56"/>
       <use x="63.623047" xlink:href="#DejaVuSans-53"/>
       <use x="127.246094" xlink:href="#DejaVuSans-48"/>
      </g>
     </g>
    </g>
    <g id="xtick_3">
     <g id="line2d_3">
      <g>
       <use style="stroke:#000000;stroke-width:0.8;" x="160.140378" xlink:href="#m616edc7398" y="299.518125"/>
      </g>
     </g>
     <g id="text_3">
      <!-- 860 -->
      <defs>
       <path d="M 33.015625 40.375 
Q 26.375 40.375 22.484375 35.828125 
Q 18.609375 31.296875 18.609375 23.390625 
Q 18.609375 15.53125 22.484375 10.953125 
Q 26.375 6.390625 33.015625 6.390625 
Q 39.65625 6.390625 43.53125 10.953125 
Q 47.40625 15.53125 47.40625 23.390625 
Q 47.40625 31.296875 43.53125 35.828125 
Q 39.65625 40.375 33.015625 40.375 
z
M 52.59375 71.296875 
L 52.59375 62.3125 
Q 48.875 64.0625 45.09375 64.984375 
Q 41.3125 65.921875 37.59375 65.921875 
Q 27.828125 65.921875 22.671875 59.328125 
Q 17.53125 52.734375 16.796875 39.40625 
Q 19.671875 43.65625 24.015625 45.921875 
Q 28.375 48.1875 33.59375 48.1875 
Q 44.578125 48.1875 50.953125 41.515625 
Q 57.328125 34.859375 57.328125 23.390625 
Q 57.328125 12.15625 50.6875 5.359375 
Q 44.046875 -1.421875 33.015625 -1.421875 
Q 20.359375 -1.421875 13.671875 8.265625 
Q 6.984375 17.96875 6.984375 36.375 
Q 6.984375 53.65625 15.1875 63.9375 
Q 23.390625 74.21875 37.203125 74.21875 
Q 40.921875 74.21875 44.703125 73.484375 
Q 48.484375 72.75 52.59375 71.296875 
z
" id="DejaVuSans-54"/>
      </defs>
      <g transform="translate(150.596628 314.116563)scale(0.1 -0.1)">
       <use xlink:href="#DejaVuSans-56"/>
       <use x="63.623047" xlink:href="#DejaVuSans-54"/>
       <use x="127.246094" xlink:href="#DejaVuSans-48"/>
      </g>
     </g>
    </g>
    <g id="xtick_4">
     <g id="line2d_4">
      <g>
       <use style="stroke:#000000;stroke-width:0.8;" x="216.370727" xlink:href="#m616edc7398" y="299.518125"/>
      </g>
     </g>
     <g id="text_4">
      <!-- 870 -->
      <defs>
       <path d="M 8.203125 72.90625 
L 55.078125 72.90625 
L 55.078125 68.703125 
L 28.609375 0 
L 18.3125 0 
L 43.21875 64.59375 
L 8.203125 64.59375 
z
" id="DejaVuSans-55"/>
      </defs>
      <g transform="translate(206.826977 314.116563)scale(0.1 -0.1)">
       <use xlink:href="#DejaVuSans-56"/>
       <use x="63.623047" xlink:href="#DejaVuSans-55"/>
       <use x="127.246094" xlink:href="#DejaVuSans-48"/>
      </g>
     </g>
    </g>
    <g id="xtick_5">
     <g id="line2d_5">
      <g>
       <use style="stroke:#000000;stroke-width:0.8;" x="272.601077" xlink:href="#m616edc7398" y="299.518125"/>
      </g>
     </g>
     <g id="text_5">
      <!-- 880 -->
      <g transform="translate(263.057327 314.116563)scale(0.1 -0.1)">
       <use xlink:href="#DejaVuSans-56"/>
       <use x="63.623047" xlink:href="#DejaVuSans-56"/>
       <use x="127.246094" xlink:href="#DejaVuSans-48"/>
      </g>
     </g>
    </g>
    <g id="text_6">
     <!-- Database Window Index Minus Query Index -->
     <defs>
      <path d="M 19.671875 64.796875 
L 19.671875 8.109375 
L 31.59375 8.109375 
Q 46.6875 8.109375 53.6875 14.9375 
Q 60.6875 21.78125 60.6875 36.53125 
Q 60.6875 51.171875 53.6875 57.984375 
Q 46.6875 64.796875 31.59375 64.796875 
z
M 9.8125 72.90625 
L 30.078125 72.90625 
Q 51.265625 72.90625 61.171875 64.09375 
Q 71.09375 55.28125 71.09375 36.53125 
Q 71.09375 17.671875 61.125 8.828125 
Q 51.171875 0 30.078125 0 
L 9.8125 0 
z
" id="DejaVuSans-68"/>
      <path d="M 34.28125 27.484375 
Q 23.390625 27.484375 19.1875 25 
Q 14.984375 22.515625 14.984375 16.5 
Q 14.984375 11.71875 18.140625 8.90625 
Q 21.296875 6.109375 26.703125 6.109375 
Q 34.1875 6.109375 38.703125 11.40625 
Q 43.21875 16.703125 43.21875 25.484375 
L 43.21875 27.484375 
z
M 52.203125 31.203125 
L 52.203125 0 
L 43.21875 0 
L 43.21875 8.296875 
Q 40.140625 3.328125 35.546875 0.953125 
Q 30.953125 -1.421875 24.3125 -1.421875 
Q 15.921875 -1.421875 10.953125 3.296875 
Q 6 8.015625 6 15.921875 
Q 6 25.140625 12.171875 29.828125 
Q 18.359375 34.515625 30.609375 34.515625 
L 43.21875 34.515625 
L 43.21875 35.40625 
Q 43.21875 41.609375 39.140625 45 
Q 35.0625 48.390625 27.6875 48.390625 
Q 23 48.390625 18.546875 47.265625 
Q 14.109375 46.140625 10.015625 43.890625 
L 10.015625 52.203125 
Q 14.9375 54.109375 19.578125 55.046875 
Q 24.21875 56 28.609375 56 
Q 40.484375 56 46.34375 49.84375 
Q 52.203125 43.703125 52.203125 31.203125 
z
" id="DejaVuSans-97"/>
      <path d="M 18.3125 70.21875 
L 18.3125 54.6875 
L 36.8125 54.6875 
L 36.8125 47.703125 
L 18.3125 47.703125 
L 18.3125 18.015625 
Q 18.3125 11.328125 20.140625 9.421875 
Q 21.96875 7.515625 27.59375 7.515625 
L 36.8125 7.515625 
L 36.8125 0 
L 27.59375 0 
Q 17.1875 0 13.234375 3.875 
Q 9.28125 7.765625 9.28125 18.015625 
L 9.28125 47.703125 
L 2.6875 47.703125 
L 2.6875 54.6875 
L 9.28125 54.6875 
L 9.28125 70.21875 
z
" id="DejaVuSans-116"/>
      <path d="M 48.6875 27.296875 
Q 48.6875 37.203125 44.609375 42.84375 
Q 40.53125 48.484375 33.40625 48.484375 
Q 26.265625 48.484375 22.1875 42.84375 
Q 18.109375 37.203125 18.109375 27.296875 
Q 18.109375 17.390625 22.1875 11.75 
Q 26.265625 6.109375 33.40625 6.109375 
Q 40.53125 6.109375 44.609375 11.75 
Q 48.6875 17.390625 48.6875 27.296875 
z
M 18.109375 46.390625 
Q 20.953125 51.265625 25.265625 53.625 
Q 29.59375 56 35.59375 56 
Q 45.5625 56 51.78125 48.09375 
Q 58.015625 40.1875 58.015625 27.296875 
Q 58.015625 14.40625 51.78125 6.484375 
Q 45.5625 -1.421875 35.59375 -1.421875 
Q 29.59375 -1.421875 25.265625 0.953125 
Q 20.953125 3.328125 18.109375 8.203125 
L 18.109375 0 
L 9.078125 0 
L 9.078125 75.984375 
L 18.109375 75.984375 
z
" id="DejaVuSans-98"/>
      <path d="M 44.28125 53.078125 
L 44.28125 44.578125 
Q 40.484375 46.53125 36.375 47.5 
Q 32.28125 48.484375 27.875 48.484375 
Q 21.1875 48.484375 17.84375 46.4375 
Q 14.5 44.390625 14.5 40.28125 
Q 14.5 37.15625 16.890625 35.375 
Q 19.28125 33.59375 26.515625 31.984375 
L 29.59375 31.296875 
Q 39.15625 29.25 43.1875 25.515625 
Q 47.21875 21.78125 47.21875 15.09375 
Q 47.21875 7.46875 41.1875 3.015625 
Q 35.15625 -1.421875 24.609375 -1.421875 
Q 20.21875 -1.421875 15.453125 -0.5625 
Q 10.6875 0.296875 5.421875 2 
L 5.421875 11.28125 
Q 10.40625 8.6875 15.234375 7.390625 
Q 20.0625 6.109375 24.8125 6.109375 
Q 31.15625 6.109375 34.5625 8.28125 
Q 37.984375 10.453125 37.984375 14.40625 
Q 37.984375 18.0625 35.515625 20.015625 
Q 33.0625 21.96875 24.703125 23.78125 
L 21.578125 24.515625 
Q 13.234375 26.265625 9.515625 29.90625 
Q 5.8125 33.546875 5.8125 39.890625 
Q 5.8125 47.609375 11.28125 51.796875 
Q 16.75 56 26.8125 56 
Q 31.78125 56 36.171875 55.265625 
Q 40.578125 54.546875 44.28125 53.078125 
z
" id="DejaVuSans-115"/>
      <path d="M 56.203125 29.59375 
L 56.203125 25.203125 
L 14.890625 25.203125 
Q 15.484375 15.921875 20.484375 11.0625 
Q 25.484375 6.203125 34.421875 6.203125 
Q 39.59375 6.203125 44.453125 7.46875 
Q 49.3125 8.734375 54.109375 11.28125 
L 54.109375 2.78125 
Q 49.265625 0.734375 44.1875 -0.34375 
Q 39.109375 -1.421875 33.890625 -1.421875 
Q 20.796875 -1.421875 13.15625 6.1875 
Q 5.515625 13.8125 5.515625 26.8125 
Q 5.515625 40.234375 12.765625 48.109375 
Q 20.015625 56 32.328125 56 
Q 43.359375 56 49.78125 48.890625 
Q 56.203125 41.796875 56.203125 29.59375 
z
M 47.21875 32.234375 
Q 47.125 39.59375 43.09375 43.984375 
Q 39.0625 48.390625 32.421875 48.390625 
Q 24.90625 48.390625 20.390625 44.140625 
Q 15.875 39.890625 15.1875 32.171875 
z
" id="DejaVuSans-101"/>
      <path id="DejaVuSans-32"/>
      <path d="M 3.328125 72.90625 
L 13.28125 72.90625 
L 28.609375 11.28125 
L 43.890625 72.90625 
L 54.984375 72.90625 
L 70.3125 11.28125 
L 85.59375 72.90625 
L 95.609375 72.90625 
L 77.296875 0 
L 64.890625 0 
L 49.515625 63.28125 
L 33.984375 0 
L 21.578125 0 
z
" id="DejaVuSans-87"/>
      <path d="M 9.421875 54.6875 
L 18.40625 54.6875 
L 18.40625 0 
L 9.421875 0 
z
M 9.421875 75.984375 
L 18.40625 75.984375 
L 18.40625 64.59375 
L 9.421875 64.59375 
z
" id="DejaVuSans-105"/>
      <path d="M 54.890625 33.015625 
L 54.890625 0 
L 45.90625 0 
L 45.90625 32.71875 
Q 45.90625 40.484375 42.875 44.328125 
Q 39.84375 48.1875 33.796875 48.1875 
Q 26.515625 48.1875 22.3125 43.546875 
Q 18.109375 38.921875 18.109375 30.90625 
L 18.109375 0 
L 9.078125 0 
L 9.078125 54.6875 
L 18.109375 54.6875 
L 18.109375 46.1875 
Q 21.34375 51.125 25.703125 53.5625 
Q 30.078125 56 35.796875 56 
Q 45.21875 56 50.046875 50.171875 
Q 54.890625 44.34375 54.890625 33.015625 
z
" id="DejaVuSans-110"/>
      <path d="M 45.40625 46.390625 
L 45.40625 75.984375 
L 54.390625 75.984375 
L 54.390625 0 
L 45.40625 0 
L 45.40625 8.203125 
Q 42.578125 3.328125 38.25 0.953125 
Q 33.9375 -1.421875 27.875 -1.421875 
Q 17.96875 -1.421875 11.734375 6.484375 
Q 5.515625 14.40625 5.515625 27.296875 
Q 5.515625 40.1875 11.734375 48.09375 
Q 17.96875 56 27.875 56 
Q 33.9375 56 38.25 53.625 
Q 42.578125 51.265625 45.40625 46.390625 
z
M 14.796875 27.296875 
Q 14.796875 17.390625 18.875 11.75 
Q 22.953125 6.109375 30.078125 6.109375 
Q 37.203125 6.109375 41.296875 11.75 
Q 45.40625 17.390625 45.40625 27.296875 
Q 45.40625 37.203125 41.296875 42.84375 
Q 37.203125 48.484375 30.078125 48.484375 
Q 22.953125 48.484375 18.875 42.84375 
Q 14.796875 37.203125 14.796875 27.296875 
z
" id="DejaVuSans-100"/>
      <path d="M 30.609375 48.390625 
Q 23.390625 48.390625 19.1875 42.75 
Q 14.984375 37.109375 14.984375 27.296875 
Q 14.984375 17.484375 19.15625 11.84375 
Q 23.34375 6.203125 30.609375 6.203125 
Q 37.796875 6.203125 41.984375 11.859375 
Q 46.1875 17.53125 46.1875 27.296875 
Q 46.1875 37.015625 41.984375 42.703125 
Q 37.796875 48.390625 30.609375 48.390625 
z
M 30.609375 56 
Q 42.328125 56 49.015625 48.375 
Q 55.71875 40.765625 55.71875 27.296875 
Q 55.71875 13.875 49.015625 6.21875 
Q 42.328125 -1.421875 30.609375 -1.421875 
Q 18.84375 -1.421875 12.171875 6.21875 
Q 5.515625 13.875 5.515625 27.296875 
Q 5.515625 40.765625 12.171875 48.375 
Q 18.84375 56 30.609375 56 
z
" id="DejaVuSans-111"/>
      <path d="M 4.203125 54.6875 
L 13.1875 54.6875 
L 24.421875 12.015625 
L 35.59375 54.6875 
L 46.1875 54.6875 
L 57.421875 12.015625 
L 68.609375 54.6875 
L 77.59375 54.6875 
L 63.28125 0 
L 52.6875 0 
L 40.921875 44.828125 
L 29.109375 0 
L 18.5 0 
z
" id="DejaVuSans-119"/>
      <path d="M 9.8125 72.90625 
L 19.671875 72.90625 
L 19.671875 0 
L 9.8125 0 
z
" id="DejaVuSans-73"/>
      <path d="M 54.890625 54.6875 
L 35.109375 28.078125 
L 55.90625 0 
L 45.3125 0 
L 29.390625 21.484375 
L 13.484375 0 
L 2.875 0 
L 24.125 28.609375 
L 4.6875 54.6875 
L 15.28125 54.6875 
L 29.78125 35.203125 
L 44.28125 54.6875 
z
" id="DejaVuSans-120"/>
      <path d="M 9.8125 72.90625 
L 24.515625 72.90625 
L 43.109375 23.296875 
L 61.8125 72.90625 
L 76.515625 72.90625 
L 76.515625 0 
L 66.890625 0 
L 66.890625 64.015625 
L 48.09375 14.015625 
L 38.1875 14.015625 
L 19.390625 64.015625 
L 19.390625 0 
L 9.8125 0 
z
" id="DejaVuSans-77"/>
      <path d="M 8.5 21.578125 
L 8.5 54.6875 
L 17.484375 54.6875 
L 17.484375 21.921875 
Q 17.484375 14.15625 20.5 10.265625 
Q 23.53125 6.390625 29.59375 6.390625 
Q 36.859375 6.390625 41.078125 11.03125 
Q 45.3125 15.671875 45.3125 23.6875 
L 45.3125 54.6875 
L 54.296875 54.6875 
L 54.296875 0 
L 45.3125 0 
L 45.3125 8.40625 
Q 42.046875 3.421875 37.71875 1 
Q 33.40625 -1.421875 27.6875 -1.421875 
Q 18.265625 -1.421875 13.375 4.4375 
Q 8.5 10.296875 8.5 21.578125 
z
M 31.109375 56 
z
" id="DejaVuSans-117"/>
      <path d="M 39.40625 66.21875 
Q 28.65625 66.21875 22.328125 58.203125 
Q 16.015625 50.203125 16.015625 36.375 
Q 16.015625 22.609375 22.328125 14.59375 
Q 28.65625 6.59375 39.40625 6.59375 
Q 50.140625 6.59375 56.421875 14.59375 
Q 62.703125 22.609375 62.703125 36.375 
Q 62.703125 50.203125 56.421875 58.203125 
Q 50.140625 66.21875 39.40625 66.21875 
z
M 53.21875 1.3125 
L 66.21875 -12.890625 
L 54.296875 -12.890625 
L 43.5 -1.21875 
Q 41.890625 -1.3125 41.03125 -1.359375 
Q 40.1875 -1.421875 39.40625 -1.421875 
Q 24.03125 -1.421875 14.8125 8.859375 
Q 5.609375 19.140625 5.609375 36.375 
Q 5.609375 53.65625 14.8125 63.9375 
Q 24.03125 74.21875 39.40625 74.21875 
Q 54.734375 74.21875 63.90625 63.9375 
Q 73.09375 53.65625 73.09375 36.375 
Q 73.09375 23.6875 67.984375 14.640625 
Q 62.890625 5.609375 53.21875 1.3125 
z
" id="DejaVuSans-81"/>
      <path d="M 41.109375 46.296875 
Q 39.59375 47.171875 37.8125 47.578125 
Q 36.03125 48 33.890625 48 
Q 26.265625 48 22.1875 43.046875 
Q 18.109375 38.09375 18.109375 28.8125 
L 18.109375 0 
L 9.078125 0 
L 9.078125 54.6875 
L 18.109375 54.6875 
L 18.109375 46.1875 
Q 20.953125 51.171875 25.484375 53.578125 
Q 30.03125 56 36.53125 56 
Q 37.453125 56 38.578125 55.875 
Q 39.703125 55.765625 41.0625 55.515625 
z
" id="DejaVuSans-114"/>
      <path d="M 32.171875 -5.078125 
Q 28.375 -14.84375 24.75 -17.8125 
Q 21.140625 -20.796875 15.09375 -20.796875 
L 7.90625 -20.796875 
L 7.90625 -13.28125 
L 13.1875 -13.28125 
Q 16.890625 -13.28125 18.9375 -11.515625 
Q 21 -9.765625 23.484375 -3.21875 
L 25.09375 0.875 
L 2.984375 54.6875 
L 12.5 54.6875 
L 29.59375 11.921875 
L 46.6875 54.6875 
L 56.203125 54.6875 
z
" id="DejaVuSans-121"/>
     </defs>
     <g transform="translate(48.155423 327.794688)scale(0.1 -0.1)">
      <use xlink:href="#DejaVuSans-68"/>
      <use x="77.001953" xlink:href="#DejaVuSans-97"/>
      <use x="138.28125" xlink:href="#DejaVuSans-116"/>
      <use x="177.490234" xlink:href="#DejaVuSans-97"/>
      <use x="238.769531" xlink:href="#DejaVuSans-98"/>
      <use x="302.246094" xlink:href="#DejaVuSans-97"/>
      <use x="363.525391" xlink:href="#DejaVuSans-115"/>
      <use x="415.625" xlink:href="#DejaVuSans-101"/>
      <use x="477.148438" xlink:href="#DejaVuSans-32"/>
      <use x="508.935547" xlink:href="#DejaVuSans-87"/>
      <use x="607.78125" xlink:href="#DejaVuSans-105"/>
      <use x="635.564453" xlink:href="#DejaVuSans-110"/>
      <use x="698.943359" xlink:href="#DejaVuSans-100"/>
      <use x="762.419922" xlink:href="#DejaVuSans-111"/>
      <use x="823.601562" xlink:href="#DejaVuSans-119"/>
      <use x="905.388672" xlink:href="#DejaVuSans-32"/>
      <use x="937.175781" xlink:href="#DejaVuSans-73"/>
      <use x="966.667969" xlink:href="#DejaVuSans-110"/>
      <use x="1030.046875" xlink:href="#DejaVuSans-100"/>
      <use x="1093.523438" xlink:href="#DejaVuSans-101"/>
      <use x="1155.03125" xlink:href="#DejaVuSans-120"/>
      <use x="1214.210938" xlink:href="#DejaVuSans-32"/>
      <use x="1245.998047" xlink:href="#DejaVuSans-77"/>
      <use x="1332.277344" xlink:href="#DejaVuSans-105"/>
      <use x="1360.060547" xlink:href="#DejaVuSans-110"/>
      <use x="1423.439453" xlink:href="#DejaVuSans-117"/>
      <use x="1486.818359" xlink:href="#DejaVuSans-115"/>
      <use x="1538.917969" xlink:href="#DejaVuSans-32"/>
      <use x="1570.705078" xlink:href="#DejaVuSans-81"/>
      <use x="1649.416016" xlink:href="#DejaVuSans-117"/>
      <use x="1712.794922" xlink:href="#DejaVuSans-101"/>
      <use x="1774.318359" xlink:href="#DejaVuSans-114"/>
      <use x="1815.431641" xlink:href="#DejaVuSans-121"/>
      <use x="1874.611328" xlink:href="#DejaVuSans-32"/>
      <use x="1906.398438" xlink:href="#DejaVuSans-73"/>
      <use x="1935.890625" xlink:href="#DejaVuSans-110"/>
      <use x="1999.269531" xlink:href="#DejaVuSans-100"/>
      <use x="2062.746094" xlink:href="#DejaVuSans-101"/>
      <use x="2124.253906" xlink:href="#DejaVuSans-120"/>
     </g>
    </g>
   </g>
   <g id="matplotlib.axis_2">
    <g id="ytick_1">
     <g id="line2d_6">
      <defs>
       <path d="M 0 0 
L -3.5 0 
" id="m93d8a8472c" style="stroke:#000000;stroke-width:0.8;"/>
      </defs>
      <g>
       <use style="stroke:#000000;stroke-width:0.8;" x="34.240625" xlink:href="#m93d8a8472c" y="299.518125"/>
      </g>
     </g>
     <g id="text_7">
      <!-- 0 -->
      <g transform="translate(20.878125 303.317344)scale(0.1 -0.1)">
       <use xlink:href="#DejaVuSans-48"/>
      </g>
     </g>
    </g>
    <g id="ytick_2">
     <g id="line2d_7">
      <g>
       <use style="stroke:#000000;stroke-width:0.8;" x="34.240625" xlink:href="#m93d8a8472c" y="246.718125"/>
      </g>
     </g>
     <g id="text_8">
      <!-- 1 -->
      <defs>
       <path d="M 12.40625 8.296875 
L 28.515625 8.296875 
L 28.515625 63.921875 
L 10.984375 60.40625 
L 10.984375 69.390625 
L 28.421875 72.90625 
L 38.28125 72.90625 
L 38.28125 8.296875 
L 54.390625 8.296875 
L 54.390625 0 
L 12.40625 0 
z
" id="DejaVuSans-49"/>
      </defs>
      <g transform="translate(20.878125 250.517344)scale(0.1 -0.1)">
       <use xlink:href="#DejaVuSans-49"/>
      </g>
     </g>
    </g>
    <g id="ytick_3">
     <g id="line2d_8">
      <g>
       <use style="stroke:#000000;stroke-width:0.8;" x="34.240625" xlink:href="#m93d8a8472c" y="193.918125"/>
      </g>
     </g>
     <g id="text_9">
      <!-- 2 -->
      <defs>
       <path d="M 19.1875 8.296875 
L 53.609375 8.296875 
L 53.609375 0 
L 7.328125 0 
L 7.328125 8.296875 
Q 12.9375 14.109375 22.625 23.890625 
Q 32.328125 33.6875 34.8125 36.53125 
Q 39.546875 41.84375 41.421875 45.53125 
Q 43.3125 49.21875 43.3125 52.78125 
Q 43.3125 58.59375 39.234375 62.25 
Q 35.15625 65.921875 28.609375 65.921875 
Q 23.96875 65.921875 18.8125 64.3125 
Q 13.671875 62.703125 7.8125 59.421875 
L 7.8125 69.390625 
Q 13.765625 71.78125 18.9375 73 
Q 24.125 74.21875 28.421875 74.21875 
Q 39.75 74.21875 46.484375 68.546875 
Q 53.21875 62.890625 53.21875 53.421875 
Q 53.21875 48.921875 51.53125 44.890625 
Q 49.859375 40.875 45.40625 35.40625 
Q 44.1875 33.984375 37.640625 27.21875 
Q 31.109375 20.453125 19.1875 8.296875 
z
" id="DejaVuSans-50"/>
      </defs>
      <g transform="translate(20.878125 197.717344)scale(0.1 -0.1)">
       <use xlink:href="#DejaVuSans-50"/>
      </g>
     </g>
    </g>
    <g id="ytick_4">
     <g id="line2d_9">
      <g>
       <use style="stroke:#000000;stroke-width:0.8;" x="34.240625" xlink:href="#m93d8a8472c" y="141.118125"/>
      </g>
     </g>
     <g id="text_10">
      <!-- 3 -->
      <defs>
       <path d="M 40.578125 39.3125 
Q 47.65625 37.796875 51.625 33 
Q 55.609375 28.21875 55.609375 21.1875 
Q 55.609375 10.40625 48.1875 4.484375 
Q 40.765625 -1.421875 27.09375 -1.421875 
Q 22.515625 -1.421875 17.65625 -0.515625 
Q 12.796875 0.390625 7.625 2.203125 
L 7.625 11.71875 
Q 11.71875 9.328125 16.59375 8.109375 
Q 21.484375 6.890625 26.8125 6.890625 
Q 36.078125 6.890625 40.9375 10.546875 
Q 45.796875 14.203125 45.796875 21.1875 
Q 45.796875 27.640625 41.28125 31.265625 
Q 36.765625 34.90625 28.71875 34.90625 
L 20.21875 34.90625 
L 20.21875 43.015625 
L 29.109375 43.015625 
Q 36.375 43.015625 40.234375 45.921875 
Q 44.09375 48.828125 44.09375 54.296875 
Q 44.09375 59.90625 40.109375 62.90625 
Q 36.140625 65.921875 28.71875 65.921875 
Q 24.65625 65.921875 20.015625 65.03125 
Q 15.375 64.15625 9.8125 62.3125 
L 9.8125 71.09375 
Q 15.4375 72.65625 20.34375 73.4375 
Q 25.25 74.21875 29.59375 74.21875 
Q 40.828125 74.21875 47.359375 69.109375 
Q 53.90625 64.015625 53.90625 55.328125 
Q 53.90625 49.265625 50.4375 45.09375 
Q 46.96875 40.921875 40.578125 39.3125 
z
" id="DejaVuSans-51"/>
      </defs>
      <g transform="translate(20.878125 144.917344)scale(0.1 -0.1)">
       <use xlink:href="#DejaVuSans-51"/>
      </g>
     </g>
    </g>
    <g id="ytick_5">
     <g id="line2d_10">
      <g>
       <use style="stroke:#000000;stroke-width:0.8;" x="34.240625" xlink:href="#m93d8a8472c" y="88.318125"/>
      </g>
     </g>
     <g id="text_11">
      <!-- 4 -->
      <g transform="translate(20.878125 92.117344)scale(0.1 -0.1)">
       <use xlink:href="#DejaVuSans-52"/>
      </g>
     </g>
    </g>
    <g id="ytick_6">
     <g id="line2d_11">
      <g>
       <use style="stroke:#000000;stroke-width:0.8;" x="34.240625" xlink:href="#m93d8a8472c" y="35.518125"/>
      </g>
     </g>
     <g id="text_12">
      <!-- 5 -->
      <g transform="translate(20.878125 39.317344)scale(0.1 -0.1)">
       <use xlink:href="#DejaVuSans-53"/>
      </g>
     </g>
    </g>
    <g id="text_13">
     <!-- Counts -->
     <defs>
      <path d="M 64.40625 67.28125 
L 64.40625 56.890625 
Q 59.421875 61.53125 53.78125 63.8125 
Q 48.140625 66.109375 41.796875 66.109375 
Q 29.296875 66.109375 22.65625 58.46875 
Q 16.015625 50.828125 16.015625 36.375 
Q 16.015625 21.96875 22.65625 14.328125 
Q 29.296875 6.6875 41.796875 6.6875 
Q 48.140625 6.6875 53.78125 8.984375 
Q 59.421875 11.28125 64.40625 15.921875 
L 64.40625 5.609375 
Q 59.234375 2.09375 53.4375 0.328125 
Q 47.65625 -1.421875 41.21875 -1.421875 
Q 24.65625 -1.421875 15.125 8.703125 
Q 5.609375 18.84375 5.609375 36.375 
Q 5.609375 53.953125 15.125 64.078125 
Q 24.65625 74.21875 41.21875 74.21875 
Q 47.75 74.21875 53.53125 72.484375 
Q 59.328125 70.75 64.40625 67.28125 
z
" id="DejaVuSans-67"/>
     </defs>
     <g transform="translate(14.798438 178.37125)rotate(-90)scale(0.1 -0.1)">
      <use xlink:href="#DejaVuSans-67"/>
      <use x="69.824219" xlink:href="#DejaVuSans-111"/>
      <use x="131.005859" xlink:href="#DejaVuSans-117"/>
      <use x="194.384766" xlink:href="#DejaVuSans-110"/>
      <use x="257.763672" xlink:href="#DejaVuSans-116"/>
      <use x="296.972656" xlink:href="#DejaVuSans-115"/>
     </g>
    </g>
   </g>
   <g id="patch_43">
    <path d="M 34.240625 299.518125 
L 34.240625 22.318125 
" style="fill:none;stroke:#000000;stroke-linecap:square;stroke-linejoin:miter;stroke-width:0.8;"/>
   </g>
   <g id="patch_44">
    <path d="M 280.417096 299.518125 
L 280.417096 22.318125 
" style="fill:none;stroke:#000000;stroke-linecap:square;stroke-linejoin:miter;stroke-width:0.8;"/>
   </g>
   <g id="patch_45">
    <path d="M 34.240625 299.518125 
L 280.417096 299.518125 
" style="fill:none;stroke:#000000;stroke-linecap:square;stroke-linejoin:miter;stroke-width:0.8;"/>
   </g>
   <g id="patch_46">
    <path d="M 34.240625 22.318125 
L 280.417096 22.318125 
" style="fill:none;stroke:#000000;stroke-linecap:square;stroke-linejoin:miter;stroke-width:0.8;"/>
   </g>
   <g id="text_14">
    <!-- Touch The Sky -->
    <defs>
     <path d="M -0.296875 72.90625 
L 61.375 72.90625 
L 61.375 64.59375 
L 35.5 64.59375 
L 35.5 0 
L 25.59375 0 
L 25.59375 64.59375 
L -0.296875 64.59375 
z
" id="DejaVuSans-84"/>
     <path d="M 48.78125 52.59375 
L 48.78125 44.1875 
Q 44.96875 46.296875 41.140625 47.34375 
Q 37.3125 48.390625 33.40625 48.390625 
Q 24.65625 48.390625 19.8125 42.84375 
Q 14.984375 37.3125 14.984375 27.296875 
Q 14.984375 17.28125 19.8125 11.734375 
Q 24.65625 6.203125 33.40625 6.203125 
Q 37.3125 6.203125 41.140625 7.25 
Q 44.96875 8.296875 48.78125 10.40625 
L 48.78125 2.09375 
Q 45.015625 0.34375 40.984375 -0.53125 
Q 36.96875 -1.421875 32.421875 -1.421875 
Q 20.0625 -1.421875 12.78125 6.34375 
Q 5.515625 14.109375 5.515625 27.296875 
Q 5.515625 40.671875 12.859375 48.328125 
Q 20.21875 56 33.015625 56 
Q 37.15625 56 41.109375 55.140625 
Q 45.0625 54.296875 48.78125 52.59375 
z
" id="DejaVuSans-99"/>
     <path d="M 54.890625 33.015625 
L 54.890625 0 
L 45.90625 0 
L 45.90625 32.71875 
Q 45.90625 40.484375 42.875 44.328125 
Q 39.84375 48.1875 33.796875 48.1875 
Q 26.515625 48.1875 22.3125 43.546875 
Q 18.109375 38.921875 18.109375 30.90625 
L 18.109375 0 
L 9.078125 0 
L 9.078125 75.984375 
L 18.109375 75.984375 
L 18.109375 46.1875 
Q 21.34375 51.125 25.703125 53.5625 
Q 30.078125 56 35.796875 56 
Q 45.21875 56 50.046875 50.171875 
Q 54.890625 44.34375 54.890625 33.015625 
z
" id="DejaVuSans-104"/>
     <path d="M 53.515625 70.515625 
L 53.515625 60.890625 
Q 47.90625 63.578125 42.921875 64.890625 
Q 37.9375 66.21875 33.296875 66.21875 
Q 25.25 66.21875 20.875 63.09375 
Q 16.5 59.96875 16.5 54.203125 
Q 16.5 49.359375 19.40625 46.890625 
Q 22.3125 44.4375 30.421875 42.921875 
L 36.375 41.703125 
Q 47.40625 39.59375 52.65625 34.296875 
Q 57.90625 29 57.90625 20.125 
Q 57.90625 9.515625 50.796875 4.046875 
Q 43.703125 -1.421875 29.984375 -1.421875 
Q 24.8125 -1.421875 18.96875 -0.25 
Q 13.140625 0.921875 6.890625 3.21875 
L 6.890625 13.375 
Q 12.890625 10.015625 18.65625 8.296875 
Q 24.421875 6.59375 29.984375 6.59375 
Q 38.421875 6.59375 43.015625 9.90625 
Q 47.609375 13.234375 47.609375 19.390625 
Q 47.609375 24.75 44.3125 27.78125 
Q 41.015625 30.8125 33.5 32.328125 
L 27.484375 33.5 
Q 16.453125 35.6875 11.515625 40.375 
Q 6.59375 45.0625 6.59375 53.421875 
Q 6.59375 63.09375 13.40625 68.65625 
Q 20.21875 74.21875 32.171875 74.21875 
Q 37.3125 74.21875 42.625 73.28125 
Q 47.953125 72.359375 53.515625 70.515625 
z
" id="DejaVuSans-83"/>
     <path d="M 9.078125 75.984375 
L 18.109375 75.984375 
L 18.109375 31.109375 
L 44.921875 54.6875 
L 56.390625 54.6875 
L 27.390625 29.109375 
L 57.625 0 
L 45.90625 0 
L 18.109375 26.703125 
L 18.109375 0 
L 9.078125 0 
z
" id="DejaVuSans-107"/>
    </defs>
    <g transform="translate(113.30011 16.318125)scale(0.12 -0.12)">
     <use xlink:href="#DejaVuSans-84"/>
     <use x="60.818359" xlink:href="#DejaVuSans-111"/>
     <use x="122" xlink:href="#DejaVuSans-117"/>
     <use x="185.378906" xlink:href="#DejaVuSans-99"/>
     <use x="240.359375" xlink:href="#DejaVuSans-104"/>
     <use x="303.738281" xlink:href="#DejaVuSans-32"/>
     <use x="335.525391" xlink:href="#DejaVuSans-84"/>
     <use x="396.609375" xlink:href="#DejaVuSans-104"/>
     <use x="459.988281" xlink:href="#DejaVuSans-101"/>
     <use x="521.511719" xlink:href="#DejaVuSans-32"/>
     <use x="553.298828" xlink:href="#DejaVuSans-83"/>
     <use x="616.775391" xlink:href="#DejaVuSans-107"/>
     <use x="674.638672" xlink:href="#DejaVuSans-121"/>
    </g>
   </g>
  </g>
  <g id="axes_2">
   <g id="patch_47">
    <path d="M 329.65239 299.518125 
L 575.82886 299.518125 
L 575.82886 22.318125 
L 329.65239 22.318125 
z
" style="fill:#ffffff;"/>
   </g>
   <g id="patch_48">
    <path clip-path="url(#p4b0d531a04)" d="M 340.842229 299.518125 
L 345.340657 299.518125 
L 345.340657 299.518125 
L 340.842229 299.518125 
z
" style="fill:#1f77b4;"/>
   </g>
   <g id="patch_49">
    <path clip-path="url(#p4b0d531a04)" d="M 346.465264 299.518125 
L 350.963692 299.518125 
L 350.963692 277.518125 
L 346.465264 277.518125 
z
" style="fill:#1f77b4;"/>
   </g>
   <g id="patch_50">
    <path clip-path="url(#p4b0d531a04)" d="M 352.088299 299.518125 
L 356.586727 299.518125 
L 356.586727 299.518125 
L 352.088299 299.518125 
z
" style="fill:#1f77b4;"/>
   </g>
   <g id="patch_51">
    <path clip-path="url(#p4b0d531a04)" d="M 357.711334 299.518125 
L 362.209762 299.518125 
L 362.209762 299.518125 
L 357.711334 299.518125 
z
" style="fill:#1f77b4;"/>
   </g>
   <g id="patch_52">
    <path clip-path="url(#p4b0d531a04)" d="M 363.334369 299.518125 
L 367.832797 299.518125 
L 367.832797 299.518125 
L 363.334369 299.518125 
z
" style="fill:#1f77b4;"/>
   </g>
   <g id="patch_53">
    <path clip-path="url(#p4b0d531a04)" d="M 368.957404 299.518125 
L 373.455832 299.518125 
L 373.455832 277.518125 
L 368.957404 277.518125 
z
" style="fill:#1f77b4;"/>
   </g>
   <g id="patch_54">
    <path clip-path="url(#p4b0d531a04)" d="M 374.580439 299.518125 
L 379.078867 299.518125 
L 379.078867 299.518125 
L 374.580439 299.518125 
z
" style="fill:#1f77b4;"/>
   </g>
   <g id="patch_55">
    <path clip-path="url(#p4b0d531a04)" d="M 380.203474 299.518125 
L 384.701902 299.518125 
L 384.701902 299.518125 
L 380.203474 299.518125 
z
" style="fill:#1f77b4;"/>
   </g>
   <g id="patch_56">
    <path clip-path="url(#p4b0d531a04)" d="M 385.826509 299.518125 
L 390.324937 299.518125 
L 390.324937 233.518125 
L 385.826509 233.518125 
z
" style="fill:#1f77b4;"/>
   </g>
   <g id="patch_57">
    <path clip-path="url(#p4b0d531a04)" d="M 391.449544 299.518125 
L 395.947972 299.518125 
L 395.947972 299.518125 
L 391.449544 299.518125 
z
" style="fill:#1f77b4;"/>
   </g>
   <g id="patch_58">
    <path clip-path="url(#p4b0d531a04)" d="M 397.072579 299.518125 
L 401.571007 299.518125 
L 401.571007 299.518125 
L 397.072579 299.518125 
z
" style="fill:#1f77b4;"/>
   </g>
   <g id="patch_59">
    <path clip-path="url(#p4b0d531a04)" d="M 402.695614 299.518125 
L 407.194042 299.518125 
L 407.194042 299.518125 
L 402.695614 299.518125 
z
" style="fill:#1f77b4;"/>
   </g>
   <g id="patch_60">
    <path clip-path="url(#p4b0d531a04)" d="M 408.318649 299.518125 
L 412.817077 299.518125 
L 412.817077 233.518125 
L 408.318649 233.518125 
z
" style="fill:#1f77b4;"/>
   </g>
   <g id="patch_61">
    <path clip-path="url(#p4b0d531a04)" d="M 413.941684 299.518125 
L 418.440112 299.518125 
L 418.440112 277.518125 
L 413.941684 277.518125 
z
" style="fill:#1f77b4;"/>
   </g>
   <g id="patch_62">
    <path clip-path="url(#p4b0d531a04)" d="M 419.564719 299.518125 
L 424.063147 299.518125 
L 424.063147 299.518125 
L 419.564719 299.518125 
z
" style="fill:#1f77b4;"/>
   </g>
   <g id="patch_63">
    <path clip-path="url(#p4b0d531a04)" d="M 425.187754 299.518125 
L 429.686182 299.518125 
L 429.686182 277.518125 
L 425.187754 277.518125 
z
" style="fill:#1f77b4;"/>
   </g>
   <g id="patch_64">
    <path clip-path="url(#p4b0d531a04)" d="M 430.810789 299.518125 
L 435.309217 299.518125 
L 435.309217 299.518125 
L 430.810789 299.518125 
z
" style="fill:#1f77b4;"/>
   </g>
   <g id="patch_65">
    <path clip-path="url(#p4b0d531a04)" d="M 436.433824 299.518125 
L 440.932252 299.518125 
L 440.932252 277.518125 
L 436.433824 277.518125 
z
" style="fill:#1f77b4;"/>
   </g>
   <g id="patch_66">
    <path clip-path="url(#p4b0d531a04)" d="M 442.056859 299.518125 
L 446.555287 299.518125 
L 446.555287 299.518125 
L 442.056859 299.518125 
z
" style="fill:#1f77b4;"/>
   </g>
   <g id="patch_67">
    <path clip-path="url(#p4b0d531a04)" d="M 447.679894 299.518125 
L 452.178322 299.518125 
L 452.178322 299.518125 
L 447.679894 299.518125 
z
" style="fill:#1f77b4;"/>
   </g>
   <g id="patch_68">
    <path clip-path="url(#p4b0d531a04)" d="M 453.302928 299.518125 
L 457.801356 299.518125 
L 457.801356 35.518125 
L 453.302928 35.518125 
z
" style="fill:#1f77b4;"/>
   </g>
   <g id="patch_69">
    <path clip-path="url(#p4b0d531a04)" d="M 458.925963 299.518125 
L 463.424391 299.518125 
L 463.424391 255.518125 
L 458.925963 255.518125 
z
" style="fill:#1f77b4;"/>
   </g>
   <g id="patch_70">
    <path clip-path="url(#p4b0d531a04)" d="M 464.548998 299.518125 
L 469.047426 299.518125 
L 469.047426 299.518125 
L 464.548998 299.518125 
z
" style="fill:#1f77b4;"/>
   </g>
   <g id="patch_71">
    <path clip-path="url(#p4b0d531a04)" d="M 470.172033 299.518125 
L 474.670461 299.518125 
L 474.670461 299.518125 
L 470.172033 299.518125 
z
" style="fill:#1f77b4;"/>
   </g>
   <g id="patch_72">
    <path clip-path="url(#p4b0d531a04)" d="M 475.795068 299.518125 
L 480.293496 299.518125 
L 480.293496 277.518125 
L 475.795068 277.518125 
z
" style="fill:#1f77b4;"/>
   </g>
   <g id="patch_73">
    <path clip-path="url(#p4b0d531a04)" d="M 481.418103 299.518125 
L 485.916531 299.518125 
L 485.916531 277.518125 
L 481.418103 277.518125 
z
" style="fill:#1f77b4;"/>
   </g>
   <g id="patch_74">
    <path clip-path="url(#p4b0d531a04)" d="M 487.041138 299.518125 
L 491.539566 299.518125 
L 491.539566 277.518125 
L 487.041138 277.518125 
z
" style="fill:#1f77b4;"/>
   </g>
   <g id="patch_75">
    <path clip-path="url(#p4b0d531a04)" d="M 492.664173 299.518125 
L 497.162601 299.518125 
L 497.162601 299.518125 
L 492.664173 299.518125 
z
" style="fill:#1f77b4;"/>
   </g>
   <g id="patch_76">
    <path clip-path="url(#p4b0d531a04)" d="M 498.287208 299.518125 
L 502.785636 299.518125 
L 502.785636 299.518125 
L 498.287208 299.518125 
z
" style="fill:#1f77b4;"/>
   </g>
   <g id="patch_77">
    <path clip-path="url(#p4b0d531a04)" d="M 503.910243 299.518125 
L 508.408671 299.518125 
L 508.408671 299.518125 
L 503.910243 299.518125 
z
" style="fill:#1f77b4;"/>
   </g>
   <g id="patch_78">
    <path clip-path="url(#p4b0d531a04)" d="M 509.533278 299.518125 
L 514.031706 299.518125 
L 514.031706 255.518125 
L 509.533278 255.518125 
z
" style="fill:#1f77b4;"/>
   </g>
   <g id="patch_79">
    <path clip-path="url(#p4b0d531a04)" d="M 515.156313 299.518125 
L 519.654741 299.518125 
L 519.654741 299.518125 
L 515.156313 299.518125 
z
" style="fill:#1f77b4;"/>
   </g>
   <g id="patch_80">
    <path clip-path="url(#p4b0d531a04)" d="M 520.779348 299.518125 
L 525.277776 299.518125 
L 525.277776 277.518125 
L 520.779348 277.518125 
z
" style="fill:#1f77b4;"/>
   </g>
   <g id="patch_81">
    <path clip-path="url(#p4b0d531a04)" d="M 526.402383 299.518125 
L 530.900811 299.518125 
L 530.900811 299.518125 
L 526.402383 299.518125 
z
" style="fill:#1f77b4;"/>
   </g>
   <g id="patch_82">
    <path clip-path="url(#p4b0d531a04)" d="M 532.025418 299.518125 
L 536.523846 299.518125 
L 536.523846 299.518125 
L 532.025418 299.518125 
z
" style="fill:#1f77b4;"/>
   </g>
   <g id="patch_83">
    <path clip-path="url(#p4b0d531a04)" d="M 537.648453 299.518125 
L 542.146881 299.518125 
L 542.146881 299.518125 
L 537.648453 299.518125 
z
" style="fill:#1f77b4;"/>
   </g>
   <g id="patch_84">
    <path clip-path="url(#p4b0d531a04)" d="M 543.271488 299.518125 
L 547.769916 299.518125 
L 547.769916 299.518125 
L 543.271488 299.518125 
z
" style="fill:#1f77b4;"/>
   </g>
   <g id="patch_85">
    <path clip-path="url(#p4b0d531a04)" d="M 548.894523 299.518125 
L 553.392951 299.518125 
L 553.392951 299.518125 
L 548.894523 299.518125 
z
" style="fill:#1f77b4;"/>
   </g>
   <g id="patch_86">
    <path clip-path="url(#p4b0d531a04)" d="M 554.517558 299.518125 
L 559.015986 299.518125 
L 559.015986 299.518125 
L 554.517558 299.518125 
z
" style="fill:#1f77b4;"/>
   </g>
   <g id="patch_87">
    <path clip-path="url(#p4b0d531a04)" d="M 560.140593 299.518125 
L 564.639021 299.518125 
L 564.639021 299.518125 
L 560.140593 299.518125 
z
" style="fill:#1f77b4;"/>
   </g>
   <g id="matplotlib.axis_3">
    <g id="xtick_6">
     <g id="line2d_12">
      <g>
       <use style="stroke:#000000;stroke-width:0.8;" x="371.206618" xlink:href="#m616edc7398" y="299.518125"/>
      </g>
     </g>
     <g id="text_15">
      <!-- 3140 -->
      <g transform="translate(358.481618 314.116563)scale(0.1 -0.1)">
       <use xlink:href="#DejaVuSans-51"/>
       <use x="63.623047" xlink:href="#DejaVuSans-49"/>
       <use x="127.246094" xlink:href="#DejaVuSans-52"/>
       <use x="190.869141" xlink:href="#DejaVuSans-48"/>
      </g>
     </g>
    </g>
    <g id="xtick_7">
     <g id="line2d_13">
      <g>
       <use style="stroke:#000000;stroke-width:0.8;" x="427.436968" xlink:href="#m616edc7398" y="299.518125"/>
      </g>
     </g>
     <g id="text_16">
      <!-- 3150 -->
      <g transform="translate(414.711968 314.116563)scale(0.1 -0.1)">
       <use xlink:href="#DejaVuSans-51"/>
       <use x="63.623047" xlink:href="#DejaVuSans-49"/>
       <use x="127.246094" xlink:href="#DejaVuSans-53"/>
       <use x="190.869141" xlink:href="#DejaVuSans-48"/>
      </g>
     </g>
    </g>
    <g id="xtick_8">
     <g id="line2d_14">
      <g>
       <use style="stroke:#000000;stroke-width:0.8;" x="483.667317" xlink:href="#m616edc7398" y="299.518125"/>
      </g>
     </g>
     <g id="text_17">
      <!-- 3160 -->
      <g transform="translate(470.942317 314.116563)scale(0.1 -0.1)">
       <use xlink:href="#DejaVuSans-51"/>
       <use x="63.623047" xlink:href="#DejaVuSans-49"/>
       <use x="127.246094" xlink:href="#DejaVuSans-54"/>
       <use x="190.869141" xlink:href="#DejaVuSans-48"/>
      </g>
     </g>
    </g>
    <g id="xtick_9">
     <g id="line2d_15">
      <g>
       <use style="stroke:#000000;stroke-width:0.8;" x="539.897667" xlink:href="#m616edc7398" y="299.518125"/>
      </g>
     </g>
     <g id="text_18">
      <!-- 3170 -->
      <g transform="translate(527.172667 314.116563)scale(0.1 -0.1)">
       <use xlink:href="#DejaVuSans-51"/>
       <use x="63.623047" xlink:href="#DejaVuSans-49"/>
       <use x="127.246094" xlink:href="#DejaVuSans-55"/>
       <use x="190.869141" xlink:href="#DejaVuSans-48"/>
      </g>
     </g>
    </g>
    <g id="text_19">
     <!-- Database Window Index Minus Query Index -->
     <g transform="translate(343.567188 327.794688)scale(0.1 -0.1)">
      <use xlink:href="#DejaVuSans-68"/>
      <use x="77.001953" xlink:href="#DejaVuSans-97"/>
      <use x="138.28125" xlink:href="#DejaVuSans-116"/>
      <use x="177.490234" xlink:href="#DejaVuSans-97"/>
      <use x="238.769531" xlink:href="#DejaVuSans-98"/>
      <use x="302.246094" xlink:href="#DejaVuSans-97"/>
      <use x="363.525391" xlink:href="#DejaVuSans-115"/>
      <use x="415.625" xlink:href="#DejaVuSans-101"/>
      <use x="477.148438" xlink:href="#DejaVuSans-32"/>
      <use x="508.935547" xlink:href="#DejaVuSans-87"/>
      <use x="607.78125" xlink:href="#DejaVuSans-105"/>
      <use x="635.564453" xlink:href="#DejaVuSans-110"/>
      <use x="698.943359" xlink:href="#DejaVuSans-100"/>
      <use x="762.419922" xlink:href="#DejaVuSans-111"/>
      <use x="823.601562" xlink:href="#DejaVuSans-119"/>
      <use x="905.388672" xlink:href="#DejaVuSans-32"/>
      <use x="937.175781" xlink:href="#DejaVuSans-73"/>
      <use x="966.667969" xlink:href="#DejaVuSans-110"/>
      <use x="1030.046875" xlink:href="#DejaVuSans-100"/>
      <use x="1093.523438" xlink:href="#DejaVuSans-101"/>
      <use x="1155.03125" xlink:href="#DejaVuSans-120"/>
      <use x="1214.210938" xlink:href="#DejaVuSans-32"/>
      <use x="1245.998047" xlink:href="#DejaVuSans-77"/>
      <use x="1332.277344" xlink:href="#DejaVuSans-105"/>
      <use x="1360.060547" xlink:href="#DejaVuSans-110"/>
      <use x="1423.439453" xlink:href="#DejaVuSans-117"/>
      <use x="1486.818359" xlink:href="#DejaVuSans-115"/>
      <use x="1538.917969" xlink:href="#DejaVuSans-32"/>
      <use x="1570.705078" xlink:href="#DejaVuSans-81"/>
      <use x="1649.416016" xlink:href="#DejaVuSans-117"/>
      <use x="1712.794922" xlink:href="#DejaVuSans-101"/>
      <use x="1774.318359" xlink:href="#DejaVuSans-114"/>
      <use x="1815.431641" xlink:href="#DejaVuSans-121"/>
      <use x="1874.611328" xlink:href="#DejaVuSans-32"/>
      <use x="1906.398438" xlink:href="#DejaVuSans-73"/>
      <use x="1935.890625" xlink:href="#DejaVuSans-110"/>
      <use x="1999.269531" xlink:href="#DejaVuSans-100"/>
      <use x="2062.746094" xlink:href="#DejaVuSans-101"/>
      <use x="2124.253906" xlink:href="#DejaVuSans-120"/>
     </g>
    </g>
   </g>
   <g id="matplotlib.axis_4">
    <g id="ytick_7">
     <g id="line2d_16">
      <g>
       <use style="stroke:#000000;stroke-width:0.8;" x="329.65239" xlink:href="#m93d8a8472c" y="299.518125"/>
      </g>
     </g>
     <g id="text_20">
      <!-- 0 -->
      <g transform="translate(316.28989 303.317344)scale(0.1 -0.1)">
       <use xlink:href="#DejaVuSans-48"/>
      </g>
     </g>
    </g>
    <g id="ytick_8">
     <g id="line2d_17">
      <g>
       <use style="stroke:#000000;stroke-width:0.8;" x="329.65239" xlink:href="#m93d8a8472c" y="255.518125"/>
      </g>
     </g>
     <g id="text_21">
      <!-- 2 -->
      <g transform="translate(316.28989 259.317344)scale(0.1 -0.1)">
       <use xlink:href="#DejaVuSans-50"/>
      </g>
     </g>
    </g>
    <g id="ytick_9">
     <g id="line2d_18">
      <g>
       <use style="stroke:#000000;stroke-width:0.8;" x="329.65239" xlink:href="#m93d8a8472c" y="211.518125"/>
      </g>
     </g>
     <g id="text_22">
      <!-- 4 -->
      <g transform="translate(316.28989 215.317344)scale(0.1 -0.1)">
       <use xlink:href="#DejaVuSans-52"/>
      </g>
     </g>
    </g>
    <g id="ytick_10">
     <g id="line2d_19">
      <g>
       <use style="stroke:#000000;stroke-width:0.8;" x="329.65239" xlink:href="#m93d8a8472c" y="167.518125"/>
      </g>
     </g>
     <g id="text_23">
      <!-- 6 -->
      <g transform="translate(316.28989 171.317344)scale(0.1 -0.1)">
       <use xlink:href="#DejaVuSans-54"/>
      </g>
     </g>
    </g>
    <g id="ytick_11">
     <g id="line2d_20">
      <g>
       <use style="stroke:#000000;stroke-width:0.8;" x="329.65239" xlink:href="#m93d8a8472c" y="123.518125"/>
      </g>
     </g>
     <g id="text_24">
      <!-- 8 -->
      <g transform="translate(316.28989 127.317344)scale(0.1 -0.1)">
       <use xlink:href="#DejaVuSans-56"/>
      </g>
     </g>
    </g>
    <g id="ytick_12">
     <g id="line2d_21">
      <g>
       <use style="stroke:#000000;stroke-width:0.8;" x="329.65239" xlink:href="#m93d8a8472c" y="79.518125"/>
      </g>
     </g>
     <g id="text_25">
      <!-- 10 -->
      <g transform="translate(309.92739 83.317344)scale(0.1 -0.1)">
       <use xlink:href="#DejaVuSans-49"/>
       <use x="63.623047" xlink:href="#DejaVuSans-48"/>
      </g>
     </g>
    </g>
    <g id="ytick_13">
     <g id="line2d_22">
      <g>
       <use style="stroke:#000000;stroke-width:0.8;" x="329.65239" xlink:href="#m93d8a8472c" y="35.518125"/>
      </g>
     </g>
     <g id="text_26">
      <!-- 12 -->
      <g transform="translate(309.92739 39.317344)scale(0.1 -0.1)">
       <use xlink:href="#DejaVuSans-49"/>
       <use x="63.623047" xlink:href="#DejaVuSans-50"/>
      </g>
     </g>
    </g>
    <g id="text_27">
     <!-- Counts -->
     <g transform="translate(303.847702 178.37125)rotate(-90)scale(0.1 -0.1)">
      <use xlink:href="#DejaVuSans-67"/>
      <use x="69.824219" xlink:href="#DejaVuSans-111"/>
      <use x="131.005859" xlink:href="#DejaVuSans-117"/>
      <use x="194.384766" xlink:href="#DejaVuSans-110"/>
      <use x="257.763672" xlink:href="#DejaVuSans-116"/>
      <use x="296.972656" xlink:href="#DejaVuSans-115"/>
     </g>
    </g>
   </g>
   <g id="patch_88">
    <path d="M 329.65239 299.518125 
L 329.65239 22.318125 
" style="fill:none;stroke:#000000;stroke-linecap:square;stroke-linejoin:miter;stroke-width:0.8;"/>
   </g>
   <g id="patch_89">
    <path d="M 575.82886 299.518125 
L 575.82886 22.318125 
" style="fill:none;stroke:#000000;stroke-linecap:square;stroke-linejoin:miter;stroke-width:0.8;"/>
   </g>
   <g id="patch_90">
    <path d="M 329.65239 299.518125 
L 575.82886 299.518125 
" style="fill:none;stroke:#000000;stroke-linecap:square;stroke-linejoin:miter;stroke-width:0.8;"/>
   </g>
   <g id="patch_91">
    <path d="M 329.65239 22.318125 
L 575.82886 22.318125 
" style="fill:none;stroke:#000000;stroke-linecap:square;stroke-linejoin:miter;stroke-width:0.8;"/>
   </g>
   <g id="text_28">
    <!-- Everybody Have Fun Tonight -->
    <defs>
     <path d="M 9.8125 72.90625 
L 55.90625 72.90625 
L 55.90625 64.59375 
L 19.671875 64.59375 
L 19.671875 43.015625 
L 54.390625 43.015625 
L 54.390625 34.71875 
L 19.671875 34.71875 
L 19.671875 8.296875 
L 56.78125 8.296875 
L 56.78125 0 
L 9.8125 0 
z
" id="DejaVuSans-69"/>
     <path d="M 2.984375 54.6875 
L 12.5 54.6875 
L 29.59375 8.796875 
L 46.6875 54.6875 
L 56.203125 54.6875 
L 35.6875 0 
L 23.484375 0 
z
" id="DejaVuSans-118"/>
     <path d="M 9.8125 72.90625 
L 19.671875 72.90625 
L 19.671875 43.015625 
L 55.515625 43.015625 
L 55.515625 72.90625 
L 65.375 72.90625 
L 65.375 0 
L 55.515625 0 
L 55.515625 34.71875 
L 19.671875 34.71875 
L 19.671875 0 
L 9.8125 0 
z
" id="DejaVuSans-72"/>
     <path d="M 9.8125 72.90625 
L 51.703125 72.90625 
L 51.703125 64.59375 
L 19.671875 64.59375 
L 19.671875 43.109375 
L 48.578125 43.109375 
L 48.578125 34.8125 
L 19.671875 34.8125 
L 19.671875 0 
L 9.8125 0 
z
" id="DejaVuSans-70"/>
     <path d="M 45.40625 27.984375 
Q 45.40625 37.75 41.375 43.109375 
Q 37.359375 48.484375 30.078125 48.484375 
Q 22.859375 48.484375 18.828125 43.109375 
Q 14.796875 37.75 14.796875 27.984375 
Q 14.796875 18.265625 18.828125 12.890625 
Q 22.859375 7.515625 30.078125 7.515625 
Q 37.359375 7.515625 41.375 12.890625 
Q 45.40625 18.265625 45.40625 27.984375 
z
M 54.390625 6.78125 
Q 54.390625 -7.171875 48.1875 -13.984375 
Q 42 -20.796875 29.203125 -20.796875 
Q 24.46875 -20.796875 20.265625 -20.09375 
Q 16.0625 -19.390625 12.109375 -17.921875 
L 12.109375 -9.1875 
Q 16.0625 -11.328125 19.921875 -12.34375 
Q 23.78125 -13.375 27.78125 -13.375 
Q 36.625 -13.375 41.015625 -8.765625 
Q 45.40625 -4.15625 45.40625 5.171875 
L 45.40625 9.625 
Q 42.625 4.78125 38.28125 2.390625 
Q 33.9375 0 27.875 0 
Q 17.828125 0 11.671875 7.65625 
Q 5.515625 15.328125 5.515625 27.984375 
Q 5.515625 40.671875 11.671875 48.328125 
Q 17.828125 56 27.875 56 
Q 33.9375 56 38.28125 53.609375 
Q 42.625 51.21875 45.40625 46.390625 
L 45.40625 54.6875 
L 54.390625 54.6875 
z
" id="DejaVuSans-103"/>
    </defs>
    <g transform="translate(365.890625 16.318125)scale(0.12 -0.12)">
     <use xlink:href="#DejaVuSans-69"/>
     <use x="63.183594" xlink:href="#DejaVuSans-118"/>
     <use x="122.363281" xlink:href="#DejaVuSans-101"/>
     <use x="183.886719" xlink:href="#DejaVuSans-114"/>
     <use x="225" xlink:href="#DejaVuSans-121"/>
     <use x="284.179688" xlink:href="#DejaVuSans-98"/>
     <use x="347.65625" xlink:href="#DejaVuSans-111"/>
     <use x="408.837891" xlink:href="#DejaVuSans-100"/>
     <use x="472.314453" xlink:href="#DejaVuSans-121"/>
     <use x="531.494141" xlink:href="#DejaVuSans-32"/>
     <use x="563.28125" xlink:href="#DejaVuSans-72"/>
     <use x="638.476562" xlink:href="#DejaVuSans-97"/>
     <use x="699.755859" xlink:href="#DejaVuSans-118"/>
     <use x="758.935547" xlink:href="#DejaVuSans-101"/>
     <use x="820.458984" xlink:href="#DejaVuSans-32"/>
     <use x="852.246094" xlink:href="#DejaVuSans-70"/>
     <use x="909.6875" xlink:href="#DejaVuSans-117"/>
     <use x="973.066406" xlink:href="#DejaVuSans-110"/>
     <use x="1036.445312" xlink:href="#DejaVuSans-32"/>
     <use x="1068.232422" xlink:href="#DejaVuSans-84"/>
     <use x="1129.050781" xlink:href="#DejaVuSans-111"/>
     <use x="1190.232422" xlink:href="#DejaVuSans-110"/>
     <use x="1253.611328" xlink:href="#DejaVuSans-105"/>
     <use x="1281.394531" xlink:href="#DejaVuSans-103"/>
     <use x="1344.871094" xlink:href="#DejaVuSans-104"/>
     <use x="1408.25" xlink:href="#DejaVuSans-116"/>
    </g>
   </g>
  </g>
  <g id="axes_3">
   <g id="patch_92">
    <path d="M 625.064154 299.518125 
L 871.240625 299.518125 
L 871.240625 22.318125 
L 625.064154 22.318125 
z
" style="fill:#ffffff;"/>
   </g>
   <g id="patch_93">
    <path clip-path="url(#pfd17aeb743)" d="M 636.253994 299.518125 
L 640.752422 299.518125 
L 640.752422 297.781283 
L 636.253994 297.781283 
z
" style="fill:#1f77b4;"/>
   </g>
   <g id="patch_94">
    <path clip-path="url(#pfd17aeb743)" d="M 641.877029 299.518125 
L 646.375457 299.518125 
L 646.375457 296.044441 
L 641.877029 296.044441 
z
" style="fill:#1f77b4;"/>
   </g>
   <g id="patch_95">
    <path clip-path="url(#pfd17aeb743)" d="M 647.500064 299.518125 
L 651.998492 299.518125 
L 651.998492 299.518125 
L 647.500064 299.518125 
z
" style="fill:#1f77b4;"/>
   </g>
   <g id="patch_96">
    <path clip-path="url(#pfd17aeb743)" d="M 653.123099 299.518125 
L 657.621527 299.518125 
L 657.621527 296.044441 
L 653.123099 296.044441 
z
" style="fill:#1f77b4;"/>
   </g>
   <g id="patch_97">
    <path clip-path="url(#pfd17aeb743)" d="M 658.746134 299.518125 
L 663.244562 299.518125 
L 663.244562 292.570757 
L 658.746134 292.570757 
z
" style="fill:#1f77b4;"/>
   </g>
   <g id="patch_98">
    <path clip-path="url(#pfd17aeb743)" d="M 664.369169 299.518125 
L 668.867597 299.518125 
L 668.867597 299.518125 
L 664.369169 299.518125 
z
" style="fill:#1f77b4;"/>
   </g>
   <g id="patch_99">
    <path clip-path="url(#pfd17aeb743)" d="M 669.992204 299.518125 
L 674.490632 299.518125 
L 674.490632 299.518125 
L 669.992204 299.518125 
z
" style="fill:#1f77b4;"/>
   </g>
   <g id="patch_100">
    <path clip-path="url(#pfd17aeb743)" d="M 675.615239 299.518125 
L 680.113667 299.518125 
L 680.113667 299.518125 
L 675.615239 299.518125 
z
" style="fill:#1f77b4;"/>
   </g>
   <g id="patch_101">
    <path clip-path="url(#pfd17aeb743)" d="M 681.238274 299.518125 
L 685.736702 299.518125 
L 685.736702 299.518125 
L 681.238274 299.518125 
z
" style="fill:#1f77b4;"/>
   </g>
   <g id="patch_102">
    <path clip-path="url(#pfd17aeb743)" d="M 686.861309 299.518125 
L 691.359737 299.518125 
L 691.359737 292.570757 
L 686.861309 292.570757 
z
" style="fill:#1f77b4;"/>
   </g>
   <g id="patch_103">
    <path clip-path="url(#pfd17aeb743)" d="M 692.484344 299.518125 
L 696.982772 299.518125 
L 696.982772 299.518125 
L 692.484344 299.518125 
z
" style="fill:#1f77b4;"/>
   </g>
   <g id="patch_104">
    <path clip-path="url(#pfd17aeb743)" d="M 698.107379 299.518125 
L 702.605807 299.518125 
L 702.605807 296.044441 
L 698.107379 296.044441 
z
" style="fill:#1f77b4;"/>
   </g>
   <g id="patch_105">
    <path clip-path="url(#pfd17aeb743)" d="M 703.730414 299.518125 
L 708.228841 299.518125 
L 708.228841 296.044441 
L 703.730414 296.044441 
z
" style="fill:#1f77b4;"/>
   </g>
   <g id="patch_106">
    <path clip-path="url(#pfd17aeb743)" d="M 709.353448 299.518125 
L 713.851876 299.518125 
L 713.851876 296.044441 
L 709.353448 296.044441 
z
" style="fill:#1f77b4;"/>
   </g>
   <g id="patch_107">
    <path clip-path="url(#pfd17aeb743)" d="M 714.976483 299.518125 
L 719.474911 299.518125 
L 719.474911 299.518125 
L 714.976483 299.518125 
z
" style="fill:#1f77b4;"/>
   </g>
   <g id="patch_108">
    <path clip-path="url(#pfd17aeb743)" d="M 720.599518 299.518125 
L 725.097946 299.518125 
L 725.097946 294.307599 
L 720.599518 294.307599 
z
" style="fill:#1f77b4;"/>
   </g>
   <g id="patch_109">
    <path clip-path="url(#pfd17aeb743)" d="M 726.222553 299.518125 
L 730.720981 299.518125 
L 730.720981 299.518125 
L 726.222553 299.518125 
z
" style="fill:#1f77b4;"/>
   </g>
   <g id="patch_110">
    <path clip-path="url(#pfd17aeb743)" d="M 731.845588 299.518125 
L 736.344016 299.518125 
L 736.344016 297.781283 
L 731.845588 297.781283 
z
" style="fill:#1f77b4;"/>
   </g>
   <g id="patch_111">
    <path clip-path="url(#pfd17aeb743)" d="M 737.468623 299.518125 
L 741.967051 299.518125 
L 741.967051 297.781283 
L 737.468623 297.781283 
z
" style="fill:#1f77b4;"/>
   </g>
   <g id="patch_112">
    <path clip-path="url(#pfd17aeb743)" d="M 743.091658 299.518125 
L 747.590086 299.518125 
L 747.590086 268.254967 
L 743.091658 268.254967 
z
" style="fill:#1f77b4;"/>
   </g>
   <g id="patch_113">
    <path clip-path="url(#pfd17aeb743)" d="M 748.714693 299.518125 
L 753.213121 299.518125 
L 753.213121 35.518125 
L 748.714693 35.518125 
z
" style="fill:#1f77b4;"/>
   </g>
   <g id="patch_114">
    <path clip-path="url(#pfd17aeb743)" d="M 754.337728 299.518125 
L 758.836156 299.518125 
L 758.836156 40.728651 
L 754.337728 40.728651 
z
" style="fill:#1f77b4;"/>
   </g>
   <g id="patch_115">
    <path clip-path="url(#pfd17aeb743)" d="M 759.960763 299.518125 
L 764.459191 299.518125 
L 764.459191 296.044441 
L 759.960763 296.044441 
z
" style="fill:#1f77b4;"/>
   </g>
   <g id="patch_116">
    <path clip-path="url(#pfd17aeb743)" d="M 765.583798 299.518125 
L 770.082226 299.518125 
L 770.082226 299.518125 
L 765.583798 299.518125 
z
" style="fill:#1f77b4;"/>
   </g>
   <g id="patch_117">
    <path clip-path="url(#pfd17aeb743)" d="M 771.206833 299.518125 
L 775.705261 299.518125 
L 775.705261 299.518125 
L 771.206833 299.518125 
z
" style="fill:#1f77b4;"/>
   </g>
   <g id="patch_118">
    <path clip-path="url(#pfd17aeb743)" d="M 776.829868 299.518125 
L 781.328296 299.518125 
L 781.328296 292.570757 
L 776.829868 292.570757 
z
" style="fill:#1f77b4;"/>
   </g>
   <g id="patch_119">
    <path clip-path="url(#pfd17aeb743)" d="M 782.452903 299.518125 
L 786.951331 299.518125 
L 786.951331 296.044441 
L 782.452903 296.044441 
z
" style="fill:#1f77b4;"/>
   </g>
   <g id="patch_120">
    <path clip-path="url(#pfd17aeb743)" d="M 788.075938 299.518125 
L 792.574366 299.518125 
L 792.574366 297.781283 
L 788.075938 297.781283 
z
" style="fill:#1f77b4;"/>
   </g>
   <g id="patch_121">
    <path clip-path="url(#pfd17aeb743)" d="M 793.698973 299.518125 
L 798.197401 299.518125 
L 798.197401 297.781283 
L 793.698973 297.781283 
z
" style="fill:#1f77b4;"/>
   </g>
   <g id="patch_122">
    <path clip-path="url(#pfd17aeb743)" d="M 799.322008 299.518125 
L 803.820436 299.518125 
L 803.820436 296.044441 
L 799.322008 296.044441 
z
" style="fill:#1f77b4;"/>
   </g>
   <g id="patch_123">
    <path clip-path="url(#pfd17aeb743)" d="M 804.945043 299.518125 
L 809.443471 299.518125 
L 809.443471 299.518125 
L 804.945043 299.518125 
z
" style="fill:#1f77b4;"/>
   </g>
   <g id="patch_124">
    <path clip-path="url(#pfd17aeb743)" d="M 810.568078 299.518125 
L 815.066506 299.518125 
L 815.066506 296.044441 
L 810.568078 296.044441 
z
" style="fill:#1f77b4;"/>
   </g>
   <g id="patch_125">
    <path clip-path="url(#pfd17aeb743)" d="M 816.191113 299.518125 
L 820.689541 299.518125 
L 820.689541 296.044441 
L 816.191113 296.044441 
z
" style="fill:#1f77b4;"/>
   </g>
   <g id="patch_126">
    <path clip-path="url(#pfd17aeb743)" d="M 821.814148 299.518125 
L 826.312576 299.518125 
L 826.312576 297.781283 
L 821.814148 297.781283 
z
" style="fill:#1f77b4;"/>
   </g>
   <g id="patch_127">
    <path clip-path="url(#pfd17aeb743)" d="M 827.437183 299.518125 
L 831.935611 299.518125 
L 831.935611 299.518125 
L 827.437183 299.518125 
z
" style="fill:#1f77b4;"/>
   </g>
   <g id="patch_128">
    <path clip-path="url(#pfd17aeb743)" d="M 833.060218 299.518125 
L 837.558646 299.518125 
L 837.558646 299.518125 
L 833.060218 299.518125 
z
" style="fill:#1f77b4;"/>
   </g>
   <g id="patch_129">
    <path clip-path="url(#pfd17aeb743)" d="M 838.683253 299.518125 
L 843.181681 299.518125 
L 843.181681 297.781283 
L 838.683253 297.781283 
z
" style="fill:#1f77b4;"/>
   </g>
   <g id="patch_130">
    <path clip-path="url(#pfd17aeb743)" d="M 844.306288 299.518125 
L 848.804716 299.518125 
L 848.804716 292.570757 
L 844.306288 292.570757 
z
" style="fill:#1f77b4;"/>
   </g>
   <g id="patch_131">
    <path clip-path="url(#pfd17aeb743)" d="M 849.929322 299.518125 
L 854.42775 299.518125 
L 854.42775 297.781283 
L 849.929322 297.781283 
z
" style="fill:#1f77b4;"/>
   </g>
   <g id="patch_132">
    <path clip-path="url(#pfd17aeb743)" d="M 855.552357 299.518125 
L 860.050785 299.518125 
L 860.050785 297.781283 
L 855.552357 297.781283 
z
" style="fill:#1f77b4;"/>
   </g>
   <g id="matplotlib.axis_5">
    <g id="xtick_10">
     <g id="line2d_23">
      <g>
       <use style="stroke:#000000;stroke-width:0.8;" x="632.880173" xlink:href="#m616edc7398" y="299.518125"/>
      </g>
     </g>
     <g id="text_29">
      <!-- 1300 -->
      <g transform="translate(620.155173 314.116563)scale(0.1 -0.1)">
       <use xlink:href="#DejaVuSans-49"/>
       <use x="63.623047" xlink:href="#DejaVuSans-51"/>
       <use x="127.246094" xlink:href="#DejaVuSans-48"/>
       <use x="190.869141" xlink:href="#DejaVuSans-48"/>
      </g>
     </g>
    </g>
    <g id="xtick_11">
     <g id="line2d_24">
      <g>
       <use style="stroke:#000000;stroke-width:0.8;" x="689.110523" xlink:href="#m616edc7398" y="299.518125"/>
      </g>
     </g>
     <g id="text_30">
      <!-- 1310 -->
      <g transform="translate(676.385523 314.116563)scale(0.1 -0.1)">
       <use xlink:href="#DejaVuSans-49"/>
       <use x="63.623047" xlink:href="#DejaVuSans-51"/>
       <use x="127.246094" xlink:href="#DejaVuSans-49"/>
       <use x="190.869141" xlink:href="#DejaVuSans-48"/>
      </g>
     </g>
    </g>
    <g id="xtick_12">
     <g id="line2d_25">
      <g>
       <use style="stroke:#000000;stroke-width:0.8;" x="745.340872" xlink:href="#m616edc7398" y="299.518125"/>
      </g>
     </g>
     <g id="text_31">
      <!-- 1320 -->
      <g transform="translate(732.615872 314.116563)scale(0.1 -0.1)">
       <use xlink:href="#DejaVuSans-49"/>
       <use x="63.623047" xlink:href="#DejaVuSans-51"/>
       <use x="127.246094" xlink:href="#DejaVuSans-50"/>
       <use x="190.869141" xlink:href="#DejaVuSans-48"/>
      </g>
     </g>
    </g>
    <g id="xtick_13">
     <g id="line2d_26">
      <g>
       <use style="stroke:#000000;stroke-width:0.8;" x="801.571222" xlink:href="#m616edc7398" y="299.518125"/>
      </g>
     </g>
     <g id="text_32">
      <!-- 1330 -->
      <g transform="translate(788.846222 314.116563)scale(0.1 -0.1)">
       <use xlink:href="#DejaVuSans-49"/>
       <use x="63.623047" xlink:href="#DejaVuSans-51"/>
       <use x="127.246094" xlink:href="#DejaVuSans-51"/>
       <use x="190.869141" xlink:href="#DejaVuSans-48"/>
      </g>
     </g>
    </g>
    <g id="xtick_14">
     <g id="line2d_27">
      <g>
       <use style="stroke:#000000;stroke-width:0.8;" x="857.801571" xlink:href="#m616edc7398" y="299.518125"/>
      </g>
     </g>
     <g id="text_33">
      <!-- 1340 -->
      <g transform="translate(845.076571 314.116563)scale(0.1 -0.1)">
       <use xlink:href="#DejaVuSans-49"/>
       <use x="63.623047" xlink:href="#DejaVuSans-51"/>
       <use x="127.246094" xlink:href="#DejaVuSans-52"/>
       <use x="190.869141" xlink:href="#DejaVuSans-48"/>
      </g>
     </g>
    </g>
    <g id="text_34">
     <!-- Database Window Index Minus Query Index -->
     <g transform="translate(638.978952 327.794688)scale(0.1 -0.1)">
      <use xlink:href="#DejaVuSans-68"/>
      <use x="77.001953" xlink:href="#DejaVuSans-97"/>
      <use x="138.28125" xlink:href="#DejaVuSans-116"/>
      <use x="177.490234" xlink:href="#DejaVuSans-97"/>
      <use x="238.769531" xlink:href="#DejaVuSans-98"/>
      <use x="302.246094" xlink:href="#DejaVuSans-97"/>
      <use x="363.525391" xlink:href="#DejaVuSans-115"/>
      <use x="415.625" xlink:href="#DejaVuSans-101"/>
      <use x="477.148438" xlink:href="#DejaVuSans-32"/>
      <use x="508.935547" xlink:href="#DejaVuSans-87"/>
      <use x="607.78125" xlink:href="#DejaVuSans-105"/>
      <use x="635.564453" xlink:href="#DejaVuSans-110"/>
      <use x="698.943359" xlink:href="#DejaVuSans-100"/>
      <use x="762.419922" xlink:href="#DejaVuSans-111"/>
      <use x="823.601562" xlink:href="#DejaVuSans-119"/>
      <use x="905.388672" xlink:href="#DejaVuSans-32"/>
      <use x="937.175781" xlink:href="#DejaVuSans-73"/>
      <use x="966.667969" xlink:href="#DejaVuSans-110"/>
      <use x="1030.046875" xlink:href="#DejaVuSans-100"/>
      <use x="1093.523438" xlink:href="#DejaVuSans-101"/>
      <use x="1155.03125" xlink:href="#DejaVuSans-120"/>
      <use x="1214.210938" xlink:href="#DejaVuSans-32"/>
      <use x="1245.998047" xlink:href="#DejaVuSans-77"/>
      <use x="1332.277344" xlink:href="#DejaVuSans-105"/>
      <use x="1360.060547" xlink:href="#DejaVuSans-110"/>
      <use x="1423.439453" xlink:href="#DejaVuSans-117"/>
      <use x="1486.818359" xlink:href="#DejaVuSans-115"/>
      <use x="1538.917969" xlink:href="#DejaVuSans-32"/>
      <use x="1570.705078" xlink:href="#DejaVuSans-81"/>
      <use x="1649.416016" xlink:href="#DejaVuSans-117"/>
      <use x="1712.794922" xlink:href="#DejaVuSans-101"/>
      <use x="1774.318359" xlink:href="#DejaVuSans-114"/>
      <use x="1815.431641" xlink:href="#DejaVuSans-121"/>
      <use x="1874.611328" xlink:href="#DejaVuSans-32"/>
      <use x="1906.398438" xlink:href="#DejaVuSans-73"/>
      <use x="1935.890625" xlink:href="#DejaVuSans-110"/>
      <use x="1999.269531" xlink:href="#DejaVuSans-100"/>
      <use x="2062.746094" xlink:href="#DejaVuSans-101"/>
      <use x="2124.253906" xlink:href="#DejaVuSans-120"/>
     </g>
    </g>
   </g>
   <g id="matplotlib.axis_6">
    <g id="ytick_14">
     <g id="line2d_28">
      <g>
       <use style="stroke:#000000;stroke-width:0.8;" x="625.064154" xlink:href="#m93d8a8472c" y="299.518125"/>
      </g>
     </g>
     <g id="text_35">
      <!-- 0 -->
      <g transform="translate(611.701654 303.317344)scale(0.1 -0.1)">
       <use xlink:href="#DejaVuSans-48"/>
      </g>
     </g>
    </g>
    <g id="ytick_15">
     <g id="line2d_29">
      <g>
       <use style="stroke:#000000;stroke-width:0.8;" x="625.064154" xlink:href="#m93d8a8472c" y="264.781283"/>
      </g>
     </g>
     <g id="text_36">
      <!-- 20 -->
      <g transform="translate(605.339154 268.580502)scale(0.1 -0.1)">
       <use xlink:href="#DejaVuSans-50"/>
       <use x="63.623047" xlink:href="#DejaVuSans-48"/>
      </g>
     </g>
    </g>
    <g id="ytick_16">
     <g id="line2d_30">
      <g>
       <use style="stroke:#000000;stroke-width:0.8;" x="625.064154" xlink:href="#m93d8a8472c" y="230.044441"/>
      </g>
     </g>
     <g id="text_37">
      <!-- 40 -->
      <g transform="translate(605.339154 233.84366)scale(0.1 -0.1)">
       <use xlink:href="#DejaVuSans-52"/>
       <use x="63.623047" xlink:href="#DejaVuSans-48"/>
      </g>
     </g>
    </g>
    <g id="ytick_17">
     <g id="line2d_31">
      <g>
       <use style="stroke:#000000;stroke-width:0.8;" x="625.064154" xlink:href="#m93d8a8472c" y="195.307599"/>
      </g>
     </g>
     <g id="text_38">
      <!-- 60 -->
      <g transform="translate(605.339154 199.106817)scale(0.1 -0.1)">
       <use xlink:href="#DejaVuSans-54"/>
       <use x="63.623047" xlink:href="#DejaVuSans-48"/>
      </g>
     </g>
    </g>
    <g id="ytick_18">
     <g id="line2d_32">
      <g>
       <use style="stroke:#000000;stroke-width:0.8;" x="625.064154" xlink:href="#m93d8a8472c" y="160.570757"/>
      </g>
     </g>
     <g id="text_39">
      <!-- 80 -->
      <g transform="translate(605.339154 164.369975)scale(0.1 -0.1)">
       <use xlink:href="#DejaVuSans-56"/>
       <use x="63.623047" xlink:href="#DejaVuSans-48"/>
      </g>
     </g>
    </g>
    <g id="ytick_19">
     <g id="line2d_33">
      <g>
       <use style="stroke:#000000;stroke-width:0.8;" x="625.064154" xlink:href="#m93d8a8472c" y="125.833914"/>
      </g>
     </g>
     <g id="text_40">
      <!-- 100 -->
      <g transform="translate(598.976654 129.633133)scale(0.1 -0.1)">
       <use xlink:href="#DejaVuSans-49"/>
       <use x="63.623047" xlink:href="#DejaVuSans-48"/>
       <use x="127.246094" xlink:href="#DejaVuSans-48"/>
      </g>
     </g>
    </g>
    <g id="ytick_20">
     <g id="line2d_34">
      <g>
       <use style="stroke:#000000;stroke-width:0.8;" x="625.064154" xlink:href="#m93d8a8472c" y="91.097072"/>
      </g>
     </g>
     <g id="text_41">
      <!-- 120 -->
      <g transform="translate(598.976654 94.896291)scale(0.1 -0.1)">
       <use xlink:href="#DejaVuSans-49"/>
       <use x="63.623047" xlink:href="#DejaVuSans-50"/>
       <use x="127.246094" xlink:href="#DejaVuSans-48"/>
      </g>
     </g>
    </g>
    <g id="ytick_21">
     <g id="line2d_35">
      <g>
       <use style="stroke:#000000;stroke-width:0.8;" x="625.064154" xlink:href="#m93d8a8472c" y="56.36023"/>
      </g>
     </g>
     <g id="text_42">
      <!-- 140 -->
      <g transform="translate(598.976654 60.159449)scale(0.1 -0.1)">
       <use xlink:href="#DejaVuSans-49"/>
       <use x="63.623047" xlink:href="#DejaVuSans-52"/>
       <use x="127.246094" xlink:href="#DejaVuSans-48"/>
      </g>
     </g>
    </g>
    <g id="text_43">
     <!-- Counts -->
     <g transform="translate(592.896967 178.37125)rotate(-90)scale(0.1 -0.1)">
      <use xlink:href="#DejaVuSans-67"/>
      <use x="69.824219" xlink:href="#DejaVuSans-111"/>
      <use x="131.005859" xlink:href="#DejaVuSans-117"/>
      <use x="194.384766" xlink:href="#DejaVuSans-110"/>
      <use x="257.763672" xlink:href="#DejaVuSans-116"/>
      <use x="296.972656" xlink:href="#DejaVuSans-115"/>
     </g>
    </g>
   </g>
   <g id="patch_133">
    <path d="M 625.064154 299.518125 
L 625.064154 22.318125 
" style="fill:none;stroke:#000000;stroke-linecap:square;stroke-linejoin:miter;stroke-width:0.8;"/>
   </g>
   <g id="patch_134">
    <path d="M 871.240625 299.518125 
L 871.240625 22.318125 
" style="fill:none;stroke:#000000;stroke-linecap:square;stroke-linejoin:miter;stroke-width:0.8;"/>
   </g>
   <g id="patch_135">
    <path d="M 625.064154 299.518125 
L 871.240625 299.518125 
" style="fill:none;stroke:#000000;stroke-linecap:square;stroke-linejoin:miter;stroke-width:0.8;"/>
   </g>
   <g id="patch_136">
    <path d="M 625.064154 22.318125 
L 871.240625 22.318125 
" style="fill:none;stroke:#000000;stroke-linecap:square;stroke-linejoin:miter;stroke-width:0.8;"/>
   </g>
   <g id="text_44">
    <!-- Bad Day -->
    <defs>
     <path d="M 19.671875 34.8125 
L 19.671875 8.109375 
L 35.5 8.109375 
Q 43.453125 8.109375 47.28125 11.40625 
Q 51.125 14.703125 51.125 21.484375 
Q 51.125 28.328125 47.28125 31.5625 
Q 43.453125 34.8125 35.5 34.8125 
z
M 19.671875 64.796875 
L 19.671875 42.828125 
L 34.28125 42.828125 
Q 41.5 42.828125 45.03125 45.53125 
Q 48.578125 48.25 48.578125 53.8125 
Q 48.578125 59.328125 45.03125 62.0625 
Q 41.5 64.796875 34.28125 64.796875 
z
M 9.8125 72.90625 
L 35.015625 72.90625 
Q 46.296875 72.90625 52.390625 68.21875 
Q 58.5 63.53125 58.5 54.890625 
Q 58.5 48.1875 55.375 44.234375 
Q 52.25 40.28125 46.1875 39.3125 
Q 53.46875 37.75 57.5 32.78125 
Q 61.53125 27.828125 61.53125 20.40625 
Q 61.53125 10.640625 54.890625 5.3125 
Q 48.25 0 35.984375 0 
L 9.8125 0 
z
" id="DejaVuSans-66"/>
    </defs>
    <g transform="translate(722.79489 16.318125)scale(0.12 -0.12)">
     <use xlink:href="#DejaVuSans-66"/>
     <use x="68.603516" xlink:href="#DejaVuSans-97"/>
     <use x="129.882812" xlink:href="#DejaVuSans-100"/>
     <use x="193.359375" xlink:href="#DejaVuSans-32"/>
     <use x="225.146484" xlink:href="#DejaVuSans-68"/>
     <use x="302.148438" xlink:href="#DejaVuSans-97"/>
     <use x="363.427734" xlink:href="#DejaVuSans-121"/>
    </g>
   </g>
  </g>
 </g>
 <defs>
  <clipPath id="pd2d2867011">
   <rect height="277.2" width="246.176471" x="34.240625" y="22.318125"/>
  </clipPath>
  <clipPath id="p4b0d531a04">
   <rect height="277.2" width="246.176471" x="329.65239" y="22.318125"/>
  </clipPath>
  <clipPath id="pfd17aeb743">
   <rect height="277.2" width="246.176471" x="625.064154" y="22.318125"/>
  </clipPath>
 </defs>
</svg>
